<?xml version="1.0" encoding="UTF-8" standalone="no"?><svg xmlns="http://www.w3.org/2000/svg" xmlns:xlink="http://www.w3.org/1999/xlink"><symbol viewBox="0 0 17 17" id="icon_fb"><title>icon_gh.svg</title><path d="M.888 15.292c.605.585 1.305.888 2.155.888H8.77V9.772H6.41V7.41H8.77V5.65c0-1 .283-1.794.87-2.36.567-.568 1.342-.85 2.287-.85.604 0 1.228.036 1.91.093v2.174l-1.4.02c-.472 0-.813.093-1 .3-.21.21-.304.492-.304.87V7.41h2.457l-.32 2.362h-2.137v6.408h2.022c.832 0 1.55-.303 2.155-.888a2.938 2.938 0 0 0 .89-2.155V3.024c0-.83-.304-1.55-.89-2.136C14.706.302 14.006 0 13.155 0H3.043c-.85 0-1.55.302-2.155.888A2.926 2.926 0 0 0 0 3.024v10.113c0 .85.302 1.57.888 2.155" fill="#222" fill-rule="evenodd"/></symbol><symbol viewBox="0 0 17 16" id="icon_gh"><title>icon_fb.svg</title><path d="M1.55 12.853c1.02 1.417 2.362 2.4 3.988 2.93.19.038.32.018.416-.076a.376.376 0 0 0 .132-.302v-1.513l-.246.038c-.15.038-.34.038-.585.038a3.45 3.45 0 0 1-.738-.076 1.475 1.475 0 0 1-.7-.32c-.226-.152-.377-.38-.47-.644l-.096-.245a2.988 2.988 0 0 0-.34-.53c-.15-.208-.302-.34-.453-.396L2.38 11.7a.443.443 0 0 1-.13-.133.412.412 0 0 1-.096-.15c-.018-.038 0-.076.057-.114.04-.038.152-.057.304-.057l.208.038c.132.038.32.113.51.246.208.15.378.34.53.547.15.304.34.51.585.662.227.15.454.226.68.226.228 0 .435-.02.606-.038.17-.037.32-.094.472-.17.057-.473.227-.83.51-1.077a12.722 12.722 0 0 1-1.077-.188 4.842 4.842 0 0 1-.983-.416 3.115 3.115 0 0 1-.85-.7c-.227-.283-.417-.66-.567-1.115a5.677 5.677 0 0 1-.208-1.586c0-.85.283-1.57.83-2.174-.264-.643-.226-1.36.077-2.154.208-.058.51 0 .907.15.397.152.7.284.89.397.168.114.32.208.433.303.66-.19 1.342-.284 2.042-.284.68 0 1.36.095 2.02.284l.398-.265c.264-.17.605-.32.964-.452.378-.152.66-.19.85-.132.322.793.36 1.51.095 2.154.548.605.832 1.324.832 2.174 0 .605-.077 1.134-.21 1.587-.15.474-.34.833-.567 1.116-.226.266-.51.51-.85.7-.34.19-.68.32-1 .416-.323.075-.682.132-1.08.19.36.3.55.81.55 1.492v2.23c0 .114.037.227.13.303.096.094.23.114.417.076 1.625-.53 2.968-1.513 3.988-2.93 1.04-1.4 1.55-2.987 1.55-4.744 0-1.476-.36-2.837-1.077-4.084a8.464 8.464 0 0 0-2.947-2.95A8.023 8.023 0 0 0 8.11 0C6.633 0 5.272.36 4.025 1.077a8.474 8.474 0 0 0-2.95 2.95A8.037 8.037 0 0 0 0 8.108c0 1.756.51 3.344 1.55 4.743" fill="#222" fill-rule="evenodd"/></symbol><symbol viewBox="0 0 104 19" id="logo_asknode"><title>logo_asknode.svg</title><path d="M4.828 11.883L7.3 4.418h.048l2.472 7.465H4.828zM11.883 18h2.73L8.403.914h-2.17L.024 18h2.743l1.312-3.82h6.48L11.884 18zm5.47-4.148l-1.7 1.945c1.82 1.562 3.996 2.344 6.527 2.344 3.915-.046 5.915-1.702 6-4.968 0-1.21-.378-2.274-1.136-3.188-.766-.93-1.95-1.504-3.55-1.722a50.278 50.278 0 0 1-1.923-.27c-.843-.156-1.456-.437-1.84-.844-.382-.398-.573-.843-.573-1.335.016-.82.3-1.438.856-1.852.53-.398 1.195-.597 1.992-.597 1.54.032 2.95.47 4.23 1.313l1.442-2.133C26.107 1.41 24.26.82 22.134.773c-1.766.016-3.13.477-4.09 1.383-.992.914-1.49 2.117-1.49 3.61 0 1.242.396 2.296 1.185 3.164.765.843 1.882 1.386 3.35 1.63.82.116 1.575.22 2.262.315 1.5.258 2.243 1.023 2.227 2.297-.032 1.555-1.157 2.348-3.376 2.38-1.875-.017-3.492-.583-4.852-1.7zM31.61 18h2.59v-5.203l3-3.152L41.854 18h3.07L38.877 7.652 44.35.914h-3.07l-7.032 8.8H34.2v-8.8h-2.59V18zm15.818 0h2.59V5.86h.047L57.787 18h2.45V.914h-2.59v12.14H57.6L49.866.915h-2.438V18zM62.96 9.457c0 1.953.06 3.273.176 3.96.062.368.14.673.234.915.102.234.215.48.34.738.414.79 1.078 1.485 1.992 2.086.9.625 2.02.953 3.364.985 1.36-.03 2.492-.36 3.398-.984.9-.6 1.547-1.297 1.945-2.086.288-.414.488-.965.597-1.652.102-.688.152-2.008.152-3.96 0-1.985-.05-3.313-.153-3.985-.11-.672-.31-1.215-.598-1.63-.4-.788-1.047-1.49-1.946-2.11-.906-.624-2.04-.944-3.398-.96-1.344.016-2.465.336-3.364.96-.914.62-1.578 1.322-1.992 2.11-.258.415-.45.958-.574 1.63-.117.672-.176 2-.176 3.984zm2.602 0c0-1.68.062-2.824.187-3.434.11-.578.33-1.05.667-1.418a3.268 3.268 0 0 1 1.078-.878c.438-.227.96-.348 1.57-.364.618.016 1.153.137 1.606.364.43.234.775.527 1.032.878.336.368.567.84.692 1.418.117.61.176 1.754.176 3.434 0 1.68-.06 2.816-.176 3.41-.125.594-.356 1.074-.692 1.442a2.86 2.86 0 0 1-1.03.854c-.454.258-.99.387-1.606.387-.61 0-1.133-.128-1.57-.386a3.03 3.03 0 0 1-1.08-.855c-.335-.37-.557-.85-.667-1.443-.126-.594-.188-1.73-.188-3.41zM77.882 18h5.802c1.28 0 2.363-.28 3.246-.844.89-.523 1.586-1.187 2.086-1.992.187-.305.347-.598.48-.88.125-.288.22-.616.28-.983.134-.726.2-2.007.2-3.843 0-1.727-.042-2.94-.128-3.645a5.143 5.143 0 0 0-.785-2.015C87.906 1.89 86.172.93 83.86.914h-5.977V18zm2.59-14.637h3.094c1.313-.03 2.33.45 3.047 1.442.352.398.574.918.668 1.558.072.64.107 1.703.107 3.188 0 1.524-.035 2.563-.106 3.118-.077.562-.26 1.027-.55 1.395-.656.992-1.71 1.488-3.164 1.488h-3.093V3.364zM92.7 18h10.91v-2.45h-8.32v-5.015h7.1V8.238h-7.1V3.363h8.32V.913H92.7V18z" fill="#222" fill-rule="evenodd"/></symbol></svg>