<?xml version="1.0" encoding="UTF-8" standalone="no"?><svg xmlns="http://www.w3.org/2000/svg" xmlns:xlink="http://www.w3.org/1999/xlink"><symbol viewBox="0 0 40 40" id="icon_ai"><title>icon_ai.svg</title><g fill="none" fill-rule="evenodd"><path stroke="#9B9B9B" fill="#FFF" d="M0 0h40v40H0z"/><path d="M3 3h34v34H3V3zm15.92 20.034L20.506 28h3.432l-5.694-17.524h-4.082L8.546 28h3.302l1.508-4.966h5.564zm-5.044-2.418l1.352-4.316c.312-1.04.572-2.262.832-3.276h.052c.26 1.014.546 2.21.884 3.276l1.378 4.316h-4.498zM29.066 28V15.338h-3.223V28h3.224zm-1.61-17.94c-1.067 0-1.795.754-1.795 1.742 0 .962.703 1.716 1.77 1.716 1.117 0 1.82-.754 1.82-1.716-.027-.988-.703-1.742-1.795-1.742z" fill="#9B9B9B"/></g></symbol><symbol viewBox="0 0 4 4" id="icon_circle"><title>icon_circle.svg</title><circle cx="186" cy="8" r="2" transform="translate(-184 -6)" fill="#DF0067" fill-rule="evenodd"/></symbol><symbol viewBox="0 0 28 40" id="icon_css3"><title>css3</title><g transform="translate(-175 -1168)" fill="none" fill-rule="evenodd"><path fill="#F1F1F1" d="M0 0h1280v2400H0z"/><g transform="translate(115 230)"><path stroke="#DEDEDE" fill="#FFF" d="M0 0h780v1220H0z"/><g transform="translate(60 938)"><path d="M5.58.048V5.35h4.327V3.536H7.395V1.862h2.512V.048H5.58zM11.72.048V1.91l1.806 1.626H11.72V5.35h4.327V3.584l-1.64-1.722h1.64V.048H11.72zM18 .048V1.91l1.735 1.626H18V5.35h4.326V3.584l-1.71-1.722h1.71V.048H18z" fill="#777"/><path d="M0 7.77l2.54 28.485 11.397 3.164 11.428-3.17 2.542-28.48H0z" fill="#9B9B9B"/><path d="M13.977 36.995l9.223-2.537 2.16-24.316H13.978v26.853z" fill="#BEBCBC"/><path d="M5.813 20.608l.306 3.488 7.857-3.488v-3.494l-8.164 3.494z" fill="#B3B3B3"/><path d="M22.68 13.384l-8.703 3.73v3.494l8.403-3.736.3-3.488zM13.977 29.735l-.027.004-3.897-1.048-.255-2.782H6.29l.49 5.482 7.17 1.984.027-.006v-3.635z" fill="#E6E6E6"/><path d="M13.977 20.608v3.488h4.266l-.387 4.56-3.88 1.082v3.635l7.146-1.985.94-10.78h-8.085z" fill="#FFF"/><path d="M13.977 20.608H5.813l.306 3.488h7.857v-3.488zM13.977 16.872v-3.488H5.194l.31 3.488h8.474z" fill="#E6E6E6"/><path d="M13.977 13.384v3.488h8.403l.3-3.488h-8.703z" fill="#FFF"/></g></g></g></symbol><symbol viewBox="0 0 40 38" id="icon_diamond"><title>icon_diamond.svg</title><path d="M39.89 10.466c.012-.027.018-.057.028-.085.02-.05.038-.102.05-.155.006-.028.008-.06.012-.09.01-.053.016-.108.017-.163l.003-.03c0-.023-.006-.047-.007-.07a1.245 1.245 0 0 0-.193-.615c-.02-.032-.04-.065-.064-.095a1.268 1.268 0 0 0-.087-.103 1.27 1.27 0 0 0-.085-.087c-.013-.012-.023-.025-.037-.037L29.303.32a1.362 1.362 0 0 0-.878-.32h-17.64c-.34 0-.667.127-.917.355L.43 8.97c-.007.006-.01.014-.017.02-.026.025-.048.052-.072.078-.03.036-.064.072-.092.11-.02.028-.036.058-.054.088-.025.04-.05.083-.07.125a1.352 1.352 0 0 0-.082.235 1.304 1.304 0 0 0-.036.256c0 .02-.006.04-.006.06 0 .014.003.025.004.038 0 .055.008.108.016.162.005.03.008.06.014.09.012.052.03.103.048.152.01.03.018.06.03.087.02.047.05.093.077.14.015.025.027.052.044.077l.002.004 18.65 26.734.02.02c.018.025.042.046.063.07.06.072.126.14.2.197.034.026.07.047.104.07.075.047.153.086.236.12.037.013.072.028.11.04.123.035.25.06.38.06h.006l.015-.003a1.4 1.4 0 0 0 .363-.058c.04-.013.074-.028.112-.043.083-.033.16-.07.235-.12.035-.022.07-.043.102-.07.077-.06.145-.127.207-.203.018-.022.04-.042.057-.065l.014-.016L39.764 10.69l.002-.003c.02-.03.037-.063.055-.096.024-.04.05-.082.07-.124zm-13.047.995l-6.91 21-7.09-21h14zM15.278 8.055l4.56-4 4.44 4h-9zM9.585 11.46l5.322 17-11-17h5.678zm19.74 0h5.814l-11 17 5.185-17zm5.105-2.763h-6.36l-5.64-6h5.246l6.754 6zm-23.5-6h5.85l-5.71 6H4.78l6.15-6z" fill="#9B9B9B" fill-rule="evenodd"/></symbol><symbol viewBox="0 0 4 4" id="icon_dot-fb"><title>Oval 13</title><circle cx="97" cy="165" r="2" transform="translate(-95 -163)" fill="#5986E6" fill-rule="evenodd"/></symbol><symbol viewBox="0 0 4 4" id="icon_dot-ha"><title>Oval 13</title><circle cx="257" cy="165" r="2" transform="translate(-255 -163)" fill="#0091FF" fill-rule="evenodd"/></symbol><symbol viewBox="0 0 38 6" id="icon_dots"><title>icon_dots</title><g fill="#DF0067" fill-rule="evenodd"><circle cx="35" cy="3" r="3"/><circle cx="19" cy="3" r="3"/><circle cx="3" cy="3" r="3"/></g></symbol><symbol viewBox="0 0 16 16" id="icon_fb"><title>icon_fb.svg</title><path d="M13.714 0H2.286A2.287 2.287 0 0 0 0 2.286v11.428A2.287 2.287 0 0 0 2.286 16H8.75V9.65H6.477V7.333h2.27V5.22c0-1.555 1.005-2.982 3.323-2.982.937 0 1.63.09 1.63.09L13.65 4.49s-.71-.005-1.482-.005c-.833 0-.97.385-.97 1.02v1.83h2.518l-.11 2.315h-2.406V16h2.516A2.287 2.287 0 0 0 16 13.714V2.286A2.287 2.287 0 0 0 13.714 0z" fill="#FFF" fill-rule="evenodd"/></symbol><symbol viewBox="0 0 17 16" id="icon_gh"><title>icon_fb.svg</title><path d="M1.55 12.853c1.02 1.417 2.362 2.4 3.988 2.93.19.038.32.018.416-.076a.376.376 0 0 0 .132-.302v-1.513l-.246.038c-.15.038-.34.038-.585.038a3.45 3.45 0 0 1-.738-.076 1.475 1.475 0 0 1-.7-.32c-.226-.152-.377-.38-.47-.644l-.096-.245a2.988 2.988 0 0 0-.34-.53c-.15-.208-.302-.34-.453-.396L2.38 11.7a.443.443 0 0 1-.13-.133.412.412 0 0 1-.096-.15c-.018-.038 0-.076.057-.114.04-.038.152-.057.304-.057l.208.038c.132.038.32.113.51.246.208.15.378.34.53.547.15.304.34.51.585.662.227.15.454.226.68.226.228 0 .435-.02.606-.038.17-.037.32-.094.472-.17.057-.473.227-.83.51-1.077a12.722 12.722 0 0 1-1.077-.188 4.842 4.842 0 0 1-.983-.416 3.115 3.115 0 0 1-.85-.7c-.227-.283-.417-.66-.567-1.115a5.677 5.677 0 0 1-.208-1.586c0-.85.283-1.57.83-2.174-.264-.643-.226-1.36.077-2.154.208-.058.51 0 .907.15.397.152.7.284.89.397.168.114.32.208.433.303.66-.19 1.342-.284 2.042-.284.68 0 1.36.095 2.02.284l.398-.265c.264-.17.605-.32.964-.452.378-.152.66-.19.85-.132.322.793.36 1.51.095 2.154.548.605.832 1.324.832 2.174 0 .605-.077 1.134-.21 1.587-.15.474-.34.833-.567 1.116-.226.266-.51.51-.85.7-.34.19-.68.32-1 .416-.323.075-.682.132-1.08.19.36.3.55.81.55 1.492v2.23c0 .114.037.227.13.303.096.094.23.114.417.076 1.625-.53 2.968-1.513 3.988-2.93 1.04-1.4 1.55-2.987 1.55-4.744 0-1.476-.36-2.837-1.077-4.084a8.464 8.464 0 0 0-2.947-2.95A8.023 8.023 0 0 0 8.11 0C6.633 0 5.272.36 4.025 1.077a8.474 8.474 0 0 0-2.95 2.95A8.037 8.037 0 0 0 0 8.108c0 1.756.51 3.344 1.55 4.743" fill="#222" fill-rule="evenodd"/></symbol><symbol viewBox="0 0 40 40" id="icon_git"><title>git</title><g transform="translate(-365 -1172)" fill="none" fill-rule="evenodd"><path fill="#F1F1F1" d="M0 0h1280v2400H0z"/><g transform="translate(115 230)"><path stroke="#DEDEDE" fill="#FFF" d="M0 0h780v1220H0z"/><path d="M289.245 960.218l-17.464-17.463a2.576 2.576 0 0 0-3.642 0l-3.626 3.627 4.6 4.6a3.058 3.058 0 0 1 3.874 3.9l4.434 4.433a3.065 3.065 0 1 1-1.17 5.062 3.066 3.066 0 0 1-.666-3.333l-4.136-4.135v10.88a3.066 3.066 0 1 1-2.52-.09v-10.982a3.065 3.065 0 0 1-1.664-4.02l-4.534-4.535-11.976 11.974a2.578 2.578 0 0 0 0 3.644l17.465 17.465a2.577 2.577 0 0 0 3.643 0l17.382-17.383a2.576 2.576 0 0 0 0-3.644" fill="#9B9B9B"/></g></g></symbol><symbol viewBox="0 0 18 16" id="icon_ha"><title>icon_ha.svg</title><g fill="#FFF" fill-rule="evenodd"><path d="M14.11 10.2h3.53V.12h-3.53V10.2z"/><g transform="translate(0 .17)"><path d="M7.27 11.93c-.396.24-1.08.36-2.06.36H3.79V9.018h1.49c.994 0 1.68.12 2.04.377.377.257.55.686.55 1.32 0 .566-.207.977-.6 1.217zM3.79 3.344h.873c1.01 0 1.697.12 2.04.343.343.223.53.617.53 1.183 0 .547-.187.924-.564 1.147-.38.223-1.064.326-2.076.326H3.77l.02-3zm7.06 4.697c-.6-.67-1.42-1.046-2.484-1.13.943-.26 1.628-.636 2.074-1.15.43-.497.65-1.183.65-2.023 0-.668-.153-1.268-.427-1.783A3.256 3.256 0 0 0 9.393.72C8.914.446 8.332.274 7.664.154 6.993.05 5.81 0 4.113 0H0v14.983h4.234c1.697 0 2.932-.052 3.686-.172s1.37-.307 1.886-.58a3.355 3.355 0 0 0 1.44-1.407c.343-.617.497-1.32.497-2.11 0-1.113-.31-2.004-.892-2.673zM15.874 11.04c-1.114 0-2.023.91-2.023 2.023 0 1.114.91 2.023 2.024 2.023 1.115 0 2.023-.91 2.023-2.023 0-1.114-.908-2.023-2.023-2.023"/></g></g></symbol><symbol viewBox="0 0 34 41" id="icon_head"><title>icon_head.svg</title><g fill="#9B9B9B" fill-rule="evenodd"><path d="M14.452 12.952a3 3 0 0 0 3-3 3 3 0 0 0-3-3 3 3 0 0 0 0 6"/><path d="M6.525 11.446c0-.285.17-.54.435-.65l1.66-.703a.735.735 0 0 0 .386-.392c.01-.02.018-.04.023-.06a.7.7 0 0 0 0-.54l-.683-1.642a.703.703 0 0 1 .157-.77l.758-.752a.718.718 0 0 1 .772-.156l1.682.672a.75.75 0 0 0 .54 0l.044-.018c.18-.07.323-.21.4-.387l.694-1.65a.72.72 0 0 1 .66-.437h1.072a.71.71 0 0 1 .655.43l.72 1.67a.72.72 0 0 0 .417.388c.175.07.372.075.547 0l1.678-.686a.717.717 0 0 1 .776.156l.76.752c.2.2.263.503.156.766l-.682 1.69a.71.71 0 0 0 .004.535c0 .006.005.01.005.015.072.178.21.32.39.396l1.688.7c.265.11.44.37.44.654v1.063c0 .285-.17.54-.435.65l-1.697.717a.72.72 0 0 0-.385.39l-.008.024a.698.698 0 0 0 .004.53l.7 1.673c.112.263.05.57-.157.77l-.76.753a.718.718 0 0 1-.77.156l-1.706-.678a.726.726 0 0 0-.538.005l-.032.013a.727.727 0 0 0-.39.383l-.69 1.67a.72.72 0 0 1-.66.435H14.08a.71.71 0 0 1-.654-.432l-.714-1.655a.71.71 0 0 0-.403-.382l-.046-.018a.75.75 0 0 0-.54 0l-1.663.68a.717.717 0 0 1-.776-.155l-.758-.752a.704.704 0 0 1-.157-.765l.672-1.66a.7.7 0 0 0-.004-.54l-.027-.06a.7.7 0 0 0-.39-.393l-1.65-.68a.714.714 0 0 1-.44-.655v-1.064h-.005zm-1.71 23.456v4.023c0 .614.503 1.113 1.122 1.113h15.78c.62 0 1.122-.5 1.122-1.113v-3.92h2.61c1.764 0 4.697-6.384 5-8.742l2.58-.05c1.022-.017 1.194-1.99.714-2.884L31.4 18.945a8.08 8.08 0 0 1-.955-3.81c0-8.38-6.883-15.164-15.35-15.098C6.655.105-.085 6.918 0 15.29c.028 2.414.624 4.693 1.66 6.704 2.07 4.002 3.155 8.42 3.155 12.908z"/></g></symbol><symbol viewBox="0 0 28 40" id="icon_html5"><title>html5</title><g transform="translate(-218 -1168)" fill="none" fill-rule="evenodd"><path fill="#F1F1F1" d="M0 0h1280v2400H0z"/><g transform="translate(115 230)"><path stroke="#DEDEDE" fill="#FFF" d="M0 0h780v1220H0z"/><g transform="translate(103 938)"><path d="M0 7.736L2.538 36.2l11.388 3.162 11.42-3.166 2.54-28.46H0z" fill="#9B9B9B"/><path d="M13.943 36.942l9.228-2.558 2.172-24.32h-11.4V36.94z" fill="#BFBDBD"/><path d="M13.943 20.62h-4.62l-.318-3.575h4.938v-3.49H5.19l.083.936.858 9.62h7.813v-3.49zM13.943 29.687l-.015.004-3.888-1.05-.25-2.783H6.288l.49 5.48 7.15 1.987.016-.005v-3.633z" fill="#ECECEC"/><path d="M5.992 0v1.753H4.37V0H2.594v5.308H4.37V3.53H5.99V5.31h1.774V0H5.992zM8.537 0v1.76H10.1v3.548h1.773V1.76h1.563V0h-4.9zM18.338 0L17.2 1.865 16.064 0h-1.85v5.308h1.736v-2.63l1.22 1.886h.03l1.222-1.887v2.63h1.766V0h-1.85zM21.07 0v5.308h4.27V3.553h-2.494V0H21.07z" fill="#777"/><path d="M13.93 20.62v3.49h4.3l-.405 4.53-3.894 1.05v3.632l7.158-1.984.053-.59.82-9.19.086-.938H13.93zM13.93 13.554v3.491h8.433l.07-.784.16-1.77.083-.936H13.93z" fill="#FFF"/></g></g></g></symbol><symbol viewBox="0 0 40 39" id="icon_jquery"><title>jquery</title><g transform="translate(-311 -1172)" fill="none" fill-rule="evenodd"><path fill="#F1F1F1" d="M0 0h1280v2400H0z"/><g transform="translate(115 230)"><path stroke="#DEDEDE" fill="#FFF" d="M0 0h780v1220H0z"/><g transform="translate(196 942)" fill="#9B9B9B"><path d="M2.515 9.287c-3.505 5.036-3.072 11.587-.39 16.94.06.13.13.253.195.38.038.08.08.163.127.243.02.045.05.094.077.137.043.087.09.168.135.25.085.147.172.294.257.438.05.08.095.16.15.24.092.156.198.31.293.465.042.066.083.13.13.195a12.03 12.03 0 0 0 .438.634c.023.034.05.067.072.098.13.177.26.35.393.52.046.063.098.126.144.188l.365.447c.046.053.09.11.14.164.16.193.33.386.503.575 0 .003.005.007.008.012a.09.09 0 0 0 .023.02c.166.183.336.363.51.54.053.056.107.108.168.166.13.134.264.268.405.4.056.055.113.108.168.16.184.174.367.346.56.51l.008.008c.032.027.066.055.096.082.168.144.338.288.51.43l.207.168c.142.114.286.222.43.332.075.056.15.114.226.173a25.405 25.405 0 0 0 .65.463c.014.013.03.024.046.036l.462.306c.068.044.135.087.2.132.24.154.483.3.72.445.07.035.14.075.205.113.177.103.358.206.542.303.1.057.2.106.304.157.123.068.253.137.385.204.032.014.064.026.092.04.055.026.107.054.158.08.202.098.41.192.62.287.04.018.084.035.127.057.238.103.477.202.72.298.058.022.115.048.176.068.22.086.45.17.677.252.03.012.055.02.084.03.252.087.502.168.758.248.06.017.12.038.183.054.262.08.514.17.78.22C33.706 41.085 38.63 27.81 38.63 27.81c-4.138 5.384-11.48 6.807-18.434 5.225-.258-.058-.514-.14-.775-.218a21.166 21.166 0 0 1-.936-.3c-.034-.012-.07-.024-.105-.04-.222-.075-.44-.158-.658-.243-.06-.026-.124-.047-.185-.07-.24-.095-.48-.197-.712-.3-.05-.017-.095-.04-.143-.06a43.78 43.78 0 0 1-.597-.28c-.06-.025-.115-.054-.176-.084-.156-.073-.31-.155-.463-.235-.106-.055-.21-.105-.31-.16-.187-.1-.373-.208-.56-.31-.058-.04-.12-.073-.186-.108a27.243 27.243 0 0 1-.723-.444 4.312 4.312 0 0 1-.195-.13c-.175-.11-.347-.228-.517-.343l-.166-.12a24.955 24.955 0 0 1-.705-.513c-.146-.113-.293-.225-.44-.343a17.773 17.773 0 0 1-.742-.62c-.015-.017-.04-.033-.06-.05a46.296 46.296 0 0 1-.575-.523c-.058-.053-.106-.103-.164-.156-.138-.134-.275-.266-.41-.403-.058-.056-.11-.11-.164-.163a16.855 16.855 0 0 1-.535-.563 26.91 26.91 0 0 1-.513-.587c-.047-.052-.09-.107-.135-.16-.124-.15-.247-.304-.373-.457-.04-.06-.087-.114-.132-.172a20.76 20.76 0 0 1-.428-.57c-3.86-5.264-5.252-12.53-2.165-18.49"/><path d="M13.397 5.042c-2.54 3.646-2.4 8.528-.422 12.387.327.645.7 1.272 1.12 1.868.378.546.798 1.19 1.306 1.63.18.2.37.396.57.592l.15.148c.19.183.38.362.58.537.005.007.016.015.022.022a14.25 14.25 0 0 0 .683.565c.055.04.104.084.158.122.23.18.465.352.704.52.008.004.014.01.026.014.103.075.212.144.324.215.05.032.1.07.15.1.174.113.346.22.525.324l.077.04c.15.09.307.18.464.26.055.032.11.06.164.09.11.053.218.11.324.166l.052.024c.224.11.45.212.675.314.053.022.1.04.15.062.185.08.37.156.555.226.083.028.16.06.238.088.17.06.342.12.51.176l.234.074c.24.076.485.174.74.214 13.082 2.17 16.108-7.908 16.108-7.908-2.725 3.926-8 5.795-13.627 4.333a12.17 12.17 0 0 1-.74-.215c-.078-.02-.147-.045-.22-.07-.176-.056-.35-.115-.52-.178-.078-.03-.16-.058-.236-.088-.187-.073-.374-.145-.555-.226a19.35 19.35 0 0 1-.835-.378l-.342-.177c-.07-.035-.135-.068-.195-.1-.152-.078-.293-.16-.437-.245-.034-.02-.068-.036-.103-.057-.175-.105-.356-.212-.522-.322-.058-.033-.106-.07-.16-.104a25.942 25.942 0 0 1-.346-.226c-.238-.165-.47-.34-.703-.516-.055-.044-.107-.084-.158-.127-2.47-1.944-4.422-4.603-5.346-7.613-.977-3.127-.76-6.637.922-9.484"/><path d="M22.545 1.87c-1.5 2.2-1.643 4.932-.61 7.357 1.097 2.58 3.34 4.602 5.953 5.56.106.04.212.076.32.113.05.014.096.03.148.046.152.047.304.104.462.134 7.227 1.396 9.185-3.707 9.71-4.46-1.72 2.473-4.605 3.067-8.146 2.207a8.593 8.593 0 0 1-.852-.266 11.14 11.14 0 0 1-1.02-.42 10.708 10.708 0 0 1-1.782-1.09C23.558 8.65 21.595 4.065 23.662.33"/></g></g></g></symbol><symbol viewBox="0 0 18 27" id="icon_leftarrow"><title>icon_leftarrow.svg</title><path d="M18 0L0 13.5 18 27V0z" fill="#DF0067" fill-rule="evenodd"/></symbol><symbol viewBox="0 0 18 17" id="icon_po"><title>icon_po.svg</title><path d="M15 0H3a3 3 0 0 0-3 3v4.5a9 9 0 0 0 9 9 9 9 0 0 0 9-9V3a3 3 0 0 0-3-3zm-.44 7.06l-4.242 4.243-.05-.05C10.007 11.69 9.55 12 9 12s-1.006-.31-1.27-.747l-.048.05L3.44 7.06a1.498 1.498 0 0 1 0-2.12 1.498 1.498 0 0 1 2.12 0L9 8.38l3.44-3.44a1.498 1.498 0 0 1 2.12 0 1.498 1.498 0 0 1 0 2.12z" fill="#FFF" fill-rule="evenodd"/></symbol><symbol viewBox="0 0 40 40" id="icon_ps"><title>icon_ps.svg</title><g fill="none" fill-rule="evenodd"><path stroke="#9B9B9B" fill="#FFF" d="M0 0h40v40H0z"/><path d="M3 3h34v34H3V3zm6.646 24.925h3.172V21.32c.416.08.962.105 1.56.105 2.262 0 4.264-.598 5.538-1.872.988-.936 1.508-2.314 1.508-3.978 0-1.638-.676-3.016-1.716-3.874-1.118-.935-2.834-1.43-5.174-1.43-2.158 0-3.744.157-4.888.365v17.29zm3.172-15.054c.338-.077.962-.155 1.846-.155 2.21 0 3.562 1.04 3.562 2.99 0 2.054-1.456 3.224-3.848 3.224-.65 0-1.17-.027-1.56-.13v-5.93zm9.627 14.43c.936.52 2.314.885 3.848.885 3.354 0 5.148-1.664 5.148-3.952-.025-1.872-1.09-3.042-3.38-3.874-1.61-.573-2.21-.963-2.21-1.77 0-.78.625-1.325 1.77-1.325 1.117 0 2.13.416 2.677.728l.624-2.262c-.727-.39-1.95-.753-3.353-.753-2.938 0-4.784 1.742-4.784 3.978-.026 1.482 1.014 2.834 3.484 3.692 1.56.546 2.08.988 2.08 1.846 0 .832-.624 1.404-2.028 1.404-1.145 0-2.523-.468-3.25-.91l-.625 2.314z" fill="#9B9B9B"/></g></symbol><symbol viewBox="0 0 18 27" id="icon_rightarrow"><title>icon_rightarrow.svg</title><path d="M0 27l18-13.5L0 0v27z" fill="#DF0067" fill-rule="evenodd"/></symbol><symbol viewBox="0 0 40 30" id="icon_sass"><title>sass</title><g transform="translate(-261 -1173)" fill="none" fill-rule="evenodd"><path fill="#F1F1F1" d="M0 0h1280v2400H0z"/><g transform="translate(115 230)"><path stroke="#DEDEDE" fill="#FFF" d="M0 0h780v1220H0z"/><path d="M174.283 965.657c-.127-.09-.106-.382.31-1.29.165-.358.54-.96 1.19-1.534.074.237.12.463.12.674-.01 1.407-1.013 1.932-1.62 2.15m-5.343 1.218c-.17.09-.326.145-.4.102-.052-.032.07-.15.07-.15s.87-.932 1.21-1.357c.2-.247.43-.54.68-.87.003.034.004.067.004.1-.002 1.117-1.082 1.872-1.564 2.175m-6.936-3.31c-.4.98-1.24 3.483-1.752 3.348-.44-.115-.706-2.018-.088-3.89.31-.943.976-2.07 1.367-2.506.63-.704 1.322-.934 1.49-.65.215.365-.764 3.086-1.016 3.7m-8.395 5.706c-1.153 1.257-2.763 1.732-3.453 1.332-.745-.432-.45-2.283.964-3.617.863-.813 1.975-1.562 2.714-2.023l.714-.43.078-.043v-.002l.177-.107c.515 1.9.016 3.57-1.194 4.89m26.814-9.04a8.224 8.224 0 0 0-3.624.843c-.37-.74-.746-1.393-.81-1.877-.073-.567-.16-.905-.07-1.58.09-.673.48-1.627.474-1.698-.006-.072-.088-.415-.894-.42-.807-.007-1.496.154-1.578.367-.08.212-.236.69-.333 1.19-.142.732-1.61 3.34-2.445 4.704-.272-.533-.504-1.002-.552-1.373-.074-.565-.16-.903-.07-1.577.088-.674.478-1.628.473-1.7-.006-.07-.088-.415-.894-.42-.807-.006-1.496.155-1.577.368-.082.214-.168.71-.333 1.192-.166.482-2.118 4.832-2.63 5.96a34.32 34.32 0 0 1-.647 1.35l-.028.055c-.137.268-.218.417-.218.417v.005c-.107.196-.224.38-.28.38-.042 0-.123-.525.016-1.245.29-1.51.988-3.862.98-3.943-.002-.042.13-.452-.454-.666-.57-.21-.772.14-.824.14-.05 0-.088.123-.088.123s.634-2.648-1.21-2.648c-1.15 0-2.748 1.26-3.535 2.404a1063.167 1063.167 0 0 0-3.98 2.18l-.085-.093c-2.235-2.385-6.367-4.072-6.19-7.277.062-1.166.467-4.235 7.938-7.957 6.12-3.05 11.018-2.21 11.865-.35 1.21 2.655-2.62 7.593-8.974 8.306-2.422.27-3.697-.667-4.014-1.017-.334-.37-.384-.385-.508-.316-.203.112-.075.437 0 .63.19.494.968 1.37 2.296 1.806 1.167.383 4.01.594 7.448-.736 3.85-1.49 6.857-5.633 5.974-9.096-.898-3.522-6.738-4.68-12.266-2.717-3.29 1.17-6.85 3.004-9.41 5.4-3.045 2.847-3.53 5.326-3.33 6.36.71 3.68 5.782 6.077 7.813 7.853l-.28.154c-1.018.504-4.884 2.527-5.85 4.665-1.098 2.425.173 4.165 1.015 4.4 2.608.725 5.285-.58 6.723-2.726 1.44-2.145 1.264-4.938.604-6.213l-.026-.047c.263-.156.53-.314.797-.47a52.432 52.432 0 0 1 1.468-.828c-.247.676-.428 1.488-.522 2.66-.11 1.376.455 3.155 1.193 3.855.325.308.716.315.964.315.86 0 1.25-.714 1.682-1.56.53-1.036.998-2.243.998-2.243s-.59 3.26 1.017 3.26c.585 0 1.174-.76 1.436-1.145l.002.006.045-.076c.06-.093.095-.152.095-.152s0-.006.003-.017a65.63 65.63 0 0 0 1.54-2.873c1.01-1.984 1.98-4.47 1.98-4.47s.09.608.385 1.613c.174.59.543 1.244.835 1.87-.235.327-.38.513-.38.513l.005.01c-.187.25-.398.517-.617.78-.798.95-1.748 2.034-1.876 2.347-.15.37-.114.64.176.86.21.16.588.183.98.157a4.474 4.474 0 0 0 1.47-.334c.39-.138.84-.353 1.265-.665.783-.575 1.255-1.398 1.21-2.49-.026-.6-.217-1.195-.46-1.757.07-.1.143-.204.214-.31 1.234-1.802 2.19-3.784 2.19-3.784s.09.607.386 1.612c.15.51.445 1.064.71 1.608-1.16.942-1.88 2.037-2.13 2.756-.46 1.33-.1 1.93.58 2.068.306.062.74-.08 1.067-.217a4.95 4.95 0 0 0 1.35-.694c.783-.577 1.536-1.382 1.49-2.472-.02-.497-.155-.99-.338-1.463.984-.41 2.257-.637 3.878-.448 3.48.407 4.162 2.58 4.03 3.488-.13.91-.86 1.41-1.103 1.56-.244.15-.318.203-.298.315.03.163.143.157.35.122.287-.048 1.828-.74 1.894-2.418.083-2.13-1.958-4.47-5.574-4.45" fill="#9B9B9B"/></g></g></symbol><symbol viewBox="0 0 20 17" id="icon_tw"><title>icon_tw.svg</title><path d="M20 1.924a8.15 8.15 0 0 1-2.356.646A4.113 4.113 0 0 0 19.447.3c-.79.47-1.67.81-2.603.996A4.102 4.102 0 0 0 13.847 0 4.103 4.103 0 0 0 9.85 5.037 11.653 11.653 0 0 1 1.394.75a4.093 4.093 0 0 0-.556 2.064c0 1.423.723 2.68 1.824 3.415a4.098 4.098 0 0 1-1.857-.514v.053a4.103 4.103 0 0 0 3.29 4.02 4.14 4.14 0 0 1-1.852.07 4.103 4.103 0 0 0 3.834 2.85A8.225 8.225 0 0 1 0 14.406a11.597 11.597 0 0 0 6.29 1.844c7.547 0 11.676-6.25 11.676-11.673 0-.177-.006-.354-.015-.53.803-.578 1.5-1.3 2.05-2.123z" fill="#FFF" fill-rule="evenodd"/></symbol><symbol viewBox="0 0 104 19" id="logo_asknode"><title>logo_asknode.svg</title><path d="M4.828 11.883L7.3 4.418h.048l2.472 7.465H4.828zM11.883 18h2.73L8.403.914h-2.17L.024 18h2.743l1.312-3.82h6.48L11.884 18zm5.47-4.148l-1.7 1.945c1.82 1.562 3.996 2.344 6.527 2.344 3.915-.046 5.915-1.702 6-4.968 0-1.21-.378-2.274-1.136-3.188-.766-.93-1.95-1.504-3.55-1.722a50.278 50.278 0 0 1-1.923-.27c-.843-.156-1.456-.437-1.84-.844-.382-.398-.573-.843-.573-1.335.016-.82.3-1.438.856-1.852.53-.398 1.195-.597 1.992-.597 1.54.032 2.95.47 4.23 1.313l1.442-2.133C26.107 1.41 24.26.82 22.134.773c-1.766.016-3.13.477-4.09 1.383-.992.914-1.49 2.117-1.49 3.61 0 1.242.396 2.296 1.185 3.164.765.843 1.882 1.386 3.35 1.63.82.116 1.575.22 2.262.315 1.5.258 2.243 1.023 2.227 2.297-.032 1.555-1.157 2.348-3.376 2.38-1.875-.017-3.492-.583-4.852-1.7zM31.61 18h2.59v-5.203l3-3.152L41.854 18h3.07L38.877 7.652 44.35.914h-3.07l-7.032 8.8H34.2v-8.8h-2.59V18zm15.818 0h2.59V5.86h.047L57.787 18h2.45V.914h-2.59v12.14H57.6L49.866.915h-2.438V18zM62.96 9.457c0 1.953.06 3.273.176 3.96.062.368.14.673.234.915.102.234.215.48.34.738.414.79 1.078 1.485 1.992 2.086.9.625 2.02.953 3.364.985 1.36-.03 2.492-.36 3.398-.984.9-.6 1.547-1.297 1.945-2.086.288-.414.488-.965.597-1.652.102-.688.152-2.008.152-3.96 0-1.985-.05-3.313-.153-3.985-.11-.672-.31-1.215-.598-1.63-.4-.788-1.047-1.49-1.946-2.11-.906-.624-2.04-.944-3.398-.96-1.344.016-2.465.336-3.364.96-.914.62-1.578 1.322-1.992 2.11-.258.415-.45.958-.574 1.63-.117.672-.176 2-.176 3.984zm2.602 0c0-1.68.062-2.824.187-3.434.11-.578.33-1.05.667-1.418a3.268 3.268 0 0 1 1.078-.878c.438-.227.96-.348 1.57-.364.618.016 1.153.137 1.606.364.43.234.775.527 1.032.878.336.368.567.84.692 1.418.117.61.176 1.754.176 3.434 0 1.68-.06 2.816-.176 3.41-.125.594-.356 1.074-.692 1.442a2.86 2.86 0 0 1-1.03.854c-.454.258-.99.387-1.606.387-.61 0-1.133-.128-1.57-.386a3.03 3.03 0 0 1-1.08-.855c-.335-.37-.557-.85-.667-1.443-.126-.594-.188-1.73-.188-3.41zM77.882 18h5.802c1.28 0 2.363-.28 3.246-.844.89-.523 1.586-1.187 2.086-1.992.187-.305.347-.598.48-.88.125-.288.22-.616.28-.983.134-.726.2-2.007.2-3.843 0-1.727-.042-2.94-.128-3.645a5.143 5.143 0 0 0-.785-2.015C87.906 1.89 86.172.93 83.86.914h-5.977V18zm2.59-14.637h3.094c1.313-.03 2.33.45 3.047 1.442.352.398.574.918.668 1.558.072.64.107 1.703.107 3.188 0 1.524-.035 2.563-.106 3.118-.077.562-.26 1.027-.55 1.395-.656.992-1.71 1.488-3.164 1.488h-3.093V3.364zM92.7 18h10.91v-2.45h-8.32v-5.015h7.1V8.238h-7.1V3.363h8.32V.913H92.7V18z" fill="#222" fill-rule="evenodd"/></symbol></svg>