<?xml version="1.0" encoding="UTF-8" standalone="no"?><svg xmlns="http://www.w3.org/2000/svg" xmlns:xlink="http://www.w3.org/1999/xlink"><symbol viewBox="0 0 40 40" id="icon_ai"><title>icon_ai.svg</title><g fill="none" fill-rule="evenodd"><path stroke="#9B9B9B" fill="#FFF" d="M0 0h40v40H0z"/><path d="M3 3h34v34H3V3zm15.92 20.034L20.506 28h3.432l-5.694-17.524h-4.082L8.546 28h3.302l1.508-4.966h5.564zm-5.044-2.418l1.352-4.316c.312-1.04.572-2.262.832-3.276h.052c.26 1.014.546 2.21.884 3.276l1.378 4.316h-4.498zM29.066 28V15.338h-3.223V28h3.224zm-1.61-17.94c-1.067 0-1.795.754-1.795 1.742 0 .962.703 1.716 1.77 1.716 1.117 0 1.82-.754 1.82-1.716-.027-.988-.703-1.742-1.795-1.742z" fill="#9B9B9B"/></g></symbol><symbol viewBox="0 0 4 4" id="icon_circle"><title>icon_circle.svg</title><circle cx="186" cy="8" r="2" transform="translate(-184 -6)" fill="#DF0067" fill-rule="evenodd"/></symbol><symbol viewBox="0 0 40 38" id="icon_diamond"><title>icon_diamond.svg</title><path d="M39.89 10.466c.012-.027.018-.057.028-.085.02-.05.038-.102.05-.155.006-.028.008-.06.012-.09.01-.053.016-.108.017-.163l.003-.03c0-.023-.006-.047-.007-.07a1.245 1.245 0 0 0-.193-.615c-.02-.032-.04-.065-.064-.095a1.268 1.268 0 0 0-.087-.103 1.27 1.27 0 0 0-.085-.087c-.013-.012-.023-.025-.037-.037L29.303.32a1.362 1.362 0 0 0-.878-.32h-17.64c-.34 0-.667.127-.917.355L.43 8.97c-.007.006-.01.014-.017.02-.026.025-.048.052-.072.078-.03.036-.064.072-.092.11-.02.028-.036.058-.054.088-.025.04-.05.083-.07.125a1.352 1.352 0 0 0-.082.235 1.304 1.304 0 0 0-.036.256c0 .02-.006.04-.006.06 0 .014.003.025.004.038 0 .055.008.108.016.162.005.03.008.06.014.09.012.052.03.103.048.152.01.03.018.06.03.087.02.047.05.093.077.14.015.025.027.052.044.077l.002.004 18.65 26.734.02.02c.018.025.042.046.063.07.06.072.126.14.2.197.034.026.07.047.104.07.075.047.153.086.236.12.037.013.072.028.11.04.123.035.25.06.38.06h.006l.015-.003a1.4 1.4 0 0 0 .363-.058c.04-.013.074-.028.112-.043.083-.033.16-.07.235-.12.035-.022.07-.043.102-.07.077-.06.145-.127.207-.203.018-.022.04-.042.057-.065l.014-.016L39.764 10.69l.002-.003c.02-.03.037-.063.055-.096.024-.04.05-.082.07-.124zm-13.047.995l-6.91 21-7.09-21h14zM15.278 8.055l4.56-4 4.44 4h-9zM9.585 11.46l5.322 17-11-17h5.678zm19.74 0h5.814l-11 17 5.185-17zm5.105-2.763h-6.36l-5.64-6h5.246l6.754 6zm-23.5-6h5.85l-5.71 6H4.78l6.15-6z" fill="#9B9B9B" fill-rule="evenodd"/></symbol><symbol viewBox="0 0 4 4" id="icon_dot-fb"><title>Oval 13</title><circle cx="97" cy="165" r="2" transform="translate(-95 -163)" fill="#5986E6" fill-rule="evenodd"/></symbol><symbol viewBox="0 0 4 4" id="icon_dot-ha"><title>Oval 13</title><circle cx="257" cy="165" r="2" transform="translate(-255 -163)" fill="#0091FF" fill-rule="evenodd"/></symbol><symbol viewBox="0 0 38 6" id="icon_dots"><title>icon_dots</title><g fill="#DF0067" fill-rule="evenodd"><circle cx="35" cy="3" r="3"/><circle cx="19" cy="3" r="3"/><circle cx="3" cy="3" r="3"/></g></symbol><symbol viewBox="0 0 16 16" id="icon_fb"><title>icon_fb.svg</title><path d="M13.714 0H2.286A2.287 2.287 0 0 0 0 2.286v11.428A2.287 2.287 0 0 0 2.286 16H8.75V9.65H6.477V7.333h2.27V5.22c0-1.555 1.005-2.982 3.323-2.982.937 0 1.63.09 1.63.09L13.65 4.49s-.71-.005-1.482-.005c-.833 0-.97.385-.97 1.02v1.83h2.518l-.11 2.315h-2.406V16h2.516A2.287 2.287 0 0 0 16 13.714V2.286A2.287 2.287 0 0 0 13.714 0z" fill="#FFF" fill-rule="evenodd"/></symbol><symbol viewBox="0 0 17 16" id="icon_gh"><title>icon_fb.svg</title><path d="M1.55 12.853c1.02 1.417 2.362 2.4 3.988 2.93.19.038.32.018.416-.076a.376.376 0 0 0 .132-.302v-1.513l-.246.038c-.15.038-.34.038-.585.038a3.45 3.45 0 0 1-.738-.076 1.475 1.475 0 0 1-.7-.32c-.226-.152-.377-.38-.47-.644l-.096-.245a2.988 2.988 0 0 0-.34-.53c-.15-.208-.302-.34-.453-.396L2.38 11.7a.443.443 0 0 1-.13-.133.412.412 0 0 1-.096-.15c-.018-.038 0-.076.057-.114.04-.038.152-.057.304-.057l.208.038c.132.038.32.113.51.246.208.15.378.34.53.547.15.304.34.51.585.662.227.15.454.226.68.226.228 0 .435-.02.606-.038.17-.037.32-.094.472-.17.057-.473.227-.83.51-1.077a12.722 12.722 0 0 1-1.077-.188 4.842 4.842 0 0 1-.983-.416 3.115 3.115 0 0 1-.85-.7c-.227-.283-.417-.66-.567-1.115a5.677 5.677 0 0 1-.208-1.586c0-.85.283-1.57.83-2.174-.264-.643-.226-1.36.077-2.154.208-.058.51 0 .907.15.397.152.7.284.89.397.168.114.32.208.433.303.66-.19 1.342-.284 2.042-.284.68 0 1.36.095 2.02.284l.398-.265c.264-.17.605-.32.964-.452.378-.152.66-.19.85-.132.322.793.36 1.51.095 2.154.548.605.832 1.324.832 2.174 0 .605-.077 1.134-.21 1.587-.15.474-.34.833-.567 1.116-.226.266-.51.51-.85.7-.34.19-.68.32-1 .416-.323.075-.682.132-1.08.19.36.3.55.81.55 1.492v2.23c0 .114.037.227.13.303.096.094.23.114.417.076 1.625-.53 2.968-1.513 3.988-2.93 1.04-1.4 1.55-2.987 1.55-4.744 0-1.476-.36-2.837-1.077-4.084a8.464 8.464 0 0 0-2.947-2.95A8.023 8.023 0 0 0 8.11 0C6.633 0 5.272.36 4.025 1.077a8.474 8.474 0 0 0-2.95 2.95A8.037 8.037 0 0 0 0 8.108c0 1.756.51 3.344 1.55 4.743" fill="#222" fill-rule="evenodd"/></symbol><symbol viewBox="0 0 40 40" id="icon_git"><title>git</title><g transform="translate(-365 -1172)" fill="none" fill-rule="evenodd"><path fill="#F1F1F1" d="M0 0h1280v2400H0z"/><g transform="translate(115 230)"><path stroke="#DEDEDE" fill="#FFF" d="M0 0h780v1220H0z"/><path d="M289.245 960.218l-17.464-17.463a2.576 2.576 0 0 0-3.642 0l-3.626 3.627 4.6 4.6a3.058 3.058 0 0 1 3.874 3.9l4.434 4.433a3.065 3.065 0 1 1-1.17 5.062 3.066 3.066 0 0 1-.666-3.333l-4.136-4.135v10.88a3.066 3.066 0 1 1-2.52-.09v-10.982a3.065 3.065 0 0 1-1.664-4.02l-4.534-4.535-11.976 11.974a2.578 2.578 0 0 0 0 3.644l17.465 17.465a2.577 2.577 0 0 0 3.643 0l17.382-17.383a2.576 2.576 0 0 0 0-3.644" fill="#9B9B9B"/></g></g></symbol><symbol viewBox="0 0 18 16" id="icon_ha"><title>icon_ha.svg</title><g fill="#FFF" fill-rule="evenodd"><path d="M14.11 10.2h3.53V.12h-3.53V10.2z"/><g transform="translate(0 .17)"><path d="M7.27 11.93c-.396.24-1.08.36-2.06.36H3.79V9.018h1.49c.994 0 1.68.12 2.04.377.377.257.55.686.55 1.32 0 .566-.207.977-.6 1.217zM3.79 3.344h.873c1.01 0 1.697.12 2.04.343.343.223.53.617.53 1.183 0 .547-.187.924-.564 1.147-.38.223-1.064.326-2.076.326H3.77l.02-3zm7.06 4.697c-.6-.67-1.42-1.046-2.484-1.13.943-.26 1.628-.636 2.074-1.15.43-.497.65-1.183.65-2.023 0-.668-.153-1.268-.427-1.783A3.256 3.256 0 0 0 9.393.72C8.914.446 8.332.274 7.664.154 6.993.05 5.81 0 4.113 0H0v14.983h4.234c1.697 0 2.932-.052 3.686-.172s1.37-.307 1.886-.58a3.355 3.355 0 0 0 1.44-1.407c.343-.617.497-1.32.497-2.11 0-1.113-.31-2.004-.892-2.673zM15.874 11.04c-1.114 0-2.023.91-2.023 2.023 0 1.114.91 2.023 2.024 2.023 1.115 0 2.023-.91 2.023-2.023 0-1.114-.908-2.023-2.023-2.023"/></g></g></symbol><symbol viewBox="0 0 34 41" id="icon_head"><title>icon_head.svg</title><g fill="#9B9B9B" fill-rule="evenodd"><path d="M14.452 12.952a3 3 0 0 0 3-3 3 3 0 0 0-3-3 3 3 0 0 0 0 6"/><path d="M6.525 11.446c0-.285.17-.54.435-.65l1.66-.703a.735.735 0 0 0 .386-.392c.01-.02.018-.04.023-.06a.7.7 0 0 0 0-.54l-.683-1.642a.703.703 0 0 1 .157-.77l.758-.752a.718.718 0 0 1 .772-.156l1.682.672a.75.75 0 0 0 .54 0l.044-.018c.18-.07.323-.21.4-.387l.694-1.65a.72.72 0 0 1 .66-.437h1.072a.71.71 0 0 1 .655.43l.72 1.67a.72.72 0 0 0 .417.388c.175.07.372.075.547 0l1.678-.686a.717.717 0 0 1 .776.156l.76.752c.2.2.263.503.156.766l-.682 1.69a.71.71 0 0 0 .004.535c0 .006.005.01.005.015.072.178.21.32.39.396l1.688.7c.265.11.44.37.44.654v1.063c0 .285-.17.54-.435.65l-1.697.717a.72.72 0 0 0-.385.39l-.008.024a.698.698 0 0 0 .004.53l.7 1.673c.112.263.05.57-.157.77l-.76.753a.718.718 0 0 1-.77.156l-1.706-.678a.726.726 0 0 0-.538.005l-.032.013a.727.727 0 0 0-.39.383l-.69 1.67a.72.72 0 0 1-.66.435H14.08a.71.71 0 0 1-.654-.432l-.714-1.655a.71.71 0 0 0-.403-.382l-.046-.018a.75.75 0 0 0-.54 0l-1.663.68a.717.717 0 0 1-.776-.155l-.758-.752a.704.704 0 0 1-.157-.765l.672-1.66a.7.7 0 0 0-.004-.54l-.027-.06a.7.7 0 0 0-.39-.393l-1.65-.68a.714.714 0 0 1-.44-.655v-1.064h-.005zm-1.71 23.456v4.023c0 .614.503 1.113 1.122 1.113h15.78c.62 0 1.122-.5 1.122-1.113v-3.92h2.61c1.764 0 4.697-6.384 5-8.742l2.58-.05c1.022-.017 1.194-1.99.714-2.884L31.4 18.945a8.08 8.08 0 0 1-.955-3.81c0-8.38-6.883-15.164-15.35-15.098C6.655.105-.085 6.918 0 15.29c.028 2.414.624 4.693 1.66 6.704 2.07 4.002 3.155 8.42 3.155 12.908z"/></g></symbol><symbol viewBox="0 0 18 27" id="icon_leftarrow"><title>icon_leftarrow.svg</title><path d="M18 0L0 13.5 18 27V0z" fill="#DF0067" fill-rule="evenodd"/></symbol><symbol viewBox="0 0 18 17" id="icon_po"><title>icon_po.svg</title><path d="M15 0H3a3 3 0 0 0-3 3v4.5a9 9 0 0 0 9 9 9 9 0 0 0 9-9V3a3 3 0 0 0-3-3zm-.44 7.06l-4.242 4.243-.05-.05C10.007 11.69 9.55 12 9 12s-1.006-.31-1.27-.747l-.048.05L3.44 7.06a1.498 1.498 0 0 1 0-2.12 1.498 1.498 0 0 1 2.12 0L9 8.38l3.44-3.44a1.498 1.498 0 0 1 2.12 0 1.498 1.498 0 0 1 0 2.12z" fill="#FFF" fill-rule="evenodd"/></symbol><symbol viewBox="0 0 40 40" id="icon_ps"><title>icon_ps.svg</title><g fill="none" fill-rule="evenodd"><path stroke="#9B9B9B" fill="#FFF" d="M0 0h40v40H0z"/><path d="M3 3h34v34H3V3zm6.646 24.925h3.172V21.32c.416.08.962.105 1.56.105 2.262 0 4.264-.598 5.538-1.872.988-.936 1.508-2.314 1.508-3.978 0-1.638-.676-3.016-1.716-3.874-1.118-.935-2.834-1.43-5.174-1.43-2.158 0-3.744.157-4.888.365v17.29zm3.172-15.054c.338-.077.962-.155 1.846-.155 2.21 0 3.562 1.04 3.562 2.99 0 2.054-1.456 3.224-3.848 3.224-.65 0-1.17-.027-1.56-.13v-5.93zm9.627 14.43c.936.52 2.314.885 3.848.885 3.354 0 5.148-1.664 5.148-3.952-.025-1.872-1.09-3.042-3.38-3.874-1.61-.573-2.21-.963-2.21-1.77 0-.78.625-1.325 1.77-1.325 1.117 0 2.13.416 2.677.728l.624-2.262c-.727-.39-1.95-.753-3.353-.753-2.938 0-4.784 1.742-4.784 3.978-.026 1.482 1.014 2.834 3.484 3.692 1.56.546 2.08.988 2.08 1.846 0 .832-.624 1.404-2.028 1.404-1.145 0-2.523-.468-3.25-.91l-.625 2.314z" fill="#9B9B9B"/></g></symbol><symbol viewBox="0 0 18 27" id="icon_rightarrow"><title>icon_rightarrow.svg</title><path d="M0 27l18-13.5L0 0v27z" fill="#DF0067" fill-rule="evenodd"/></symbol><symbol viewBox="0 0 20 17" id="icon_tw"><title>icon_tw.svg</title><path d="M20 1.924a8.15 8.15 0 0 1-2.356.646A4.113 4.113 0 0 0 19.447.3c-.79.47-1.67.81-2.603.996A4.102 4.102 0 0 0 13.847 0 4.103 4.103 0 0 0 9.85 5.037 11.653 11.653 0 0 1 1.394.75a4.093 4.093 0 0 0-.556 2.064c0 1.423.723 2.68 1.824 3.415a4.098 4.098 0 0 1-1.857-.514v.053a4.103 4.103 0 0 0 3.29 4.02 4.14 4.14 0 0 1-1.852.07 4.103 4.103 0 0 0 3.834 2.85A8.225 8.225 0 0 1 0 14.406a11.597 11.597 0 0 0 6.29 1.844c7.547 0 11.676-6.25 11.676-11.673 0-.177-.006-.354-.015-.53.803-.578 1.5-1.3 2.05-2.123z" fill="#FFF" fill-rule="evenodd"/></symbol><symbol viewBox="0 0 104 19" id="logo_asknode"><title>logo_asknode.svg</title><path d="M4.828 11.883L7.3 4.418h.048l2.472 7.465H4.828zM11.883 18h2.73L8.403.914h-2.17L.024 18h2.743l1.312-3.82h6.48L11.884 18zm5.47-4.148l-1.7 1.945c1.82 1.562 3.996 2.344 6.527 2.344 3.915-.046 5.915-1.702 6-4.968 0-1.21-.378-2.274-1.136-3.188-.766-.93-1.95-1.504-3.55-1.722a50.278 50.278 0 0 1-1.923-.27c-.843-.156-1.456-.437-1.84-.844-.382-.398-.573-.843-.573-1.335.016-.82.3-1.438.856-1.852.53-.398 1.195-.597 1.992-.597 1.54.032 2.95.47 4.23 1.313l1.442-2.133C26.107 1.41 24.26.82 22.134.773c-1.766.016-3.13.477-4.09 1.383-.992.914-1.49 2.117-1.49 3.61 0 1.242.396 2.296 1.185 3.164.765.843 1.882 1.386 3.35 1.63.82.116 1.575.22 2.262.315 1.5.258 2.243 1.023 2.227 2.297-.032 1.555-1.157 2.348-3.376 2.38-1.875-.017-3.492-.583-4.852-1.7zM31.61 18h2.59v-5.203l3-3.152L41.854 18h3.07L38.877 7.652 44.35.914h-3.07l-7.032 8.8H34.2v-8.8h-2.59V18zm15.818 0h2.59V5.86h.047L57.787 18h2.45V.914h-2.59v12.14H57.6L49.866.915h-2.438V18zM62.96 9.457c0 1.953.06 3.273.176 3.96.062.368.14.673.234.915.102.234.215.48.34.738.414.79 1.078 1.485 1.992 2.086.9.625 2.02.953 3.364.985 1.36-.03 2.492-.36 3.398-.984.9-.6 1.547-1.297 1.945-2.086.288-.414.488-.965.597-1.652.102-.688.152-2.008.152-3.96 0-1.985-.05-3.313-.153-3.985-.11-.672-.31-1.215-.598-1.63-.4-.788-1.047-1.49-1.946-2.11-.906-.624-2.04-.944-3.398-.96-1.344.016-2.465.336-3.364.96-.914.62-1.578 1.322-1.992 2.11-.258.415-.45.958-.574 1.63-.117.672-.176 2-.176 3.984zm2.602 0c0-1.68.062-2.824.187-3.434.11-.578.33-1.05.667-1.418a3.268 3.268 0 0 1 1.078-.878c.438-.227.96-.348 1.57-.364.618.016 1.153.137 1.606.364.43.234.775.527 1.032.878.336.368.567.84.692 1.418.117.61.176 1.754.176 3.434 0 1.68-.06 2.816-.176 3.41-.125.594-.356 1.074-.692 1.442a2.86 2.86 0 0 1-1.03.854c-.454.258-.99.387-1.606.387-.61 0-1.133-.128-1.57-.386a3.03 3.03 0 0 1-1.08-.855c-.335-.37-.557-.85-.667-1.443-.126-.594-.188-1.73-.188-3.41zM77.882 18h5.802c1.28 0 2.363-.28 3.246-.844.89-.523 1.586-1.187 2.086-1.992.187-.305.347-.598.48-.88.125-.288.22-.616.28-.983.134-.726.2-2.007.2-3.843 0-1.727-.042-2.94-.128-3.645a5.143 5.143 0 0 0-.785-2.015C87.906 1.89 86.172.93 83.86.914h-5.977V18zm2.59-14.637h3.094c1.313-.03 2.33.45 3.047 1.442.352.398.574.918.668 1.558.072.64.107 1.703.107 3.188 0 1.524-.035 2.563-.106 3.118-.077.562-.26 1.027-.55 1.395-.656.992-1.71 1.488-3.164 1.488h-3.093V3.364zM92.7 18h10.91v-2.45h-8.32v-5.015h7.1V8.238h-7.1V3.363h8.32V.913H92.7V18z" fill="#222" fill-rule="evenodd"/></symbol></svg>