<?xml version="1.0" encoding="UTF-8" standalone="no"?>
<svg width="17px" height="16px" viewBox="0 0 17 16" version="1.1" xmlns="http://www.w3.org/2000/svg" xmlns:xlink="http://www.w3.org/1999/xlink" xmlns:sketch="http://www.bohemiancoding.com/sketch/ns">
    <!-- Generator: Sketch 3.4.2 (15855) - http://www.bohemiancoding.com/sketch -->
    <title>icon_fb.svg</title>
    <desc>Created with Sketch.</desc>
    <defs></defs>
    <g id="pc" stroke="none" stroke-width="1" fill="none" fill-rule="evenodd" sketch:type="MSPage">
        <g id="single-service" sketch:type="MSArtboardGroup" transform="translate(-1224.000000, -19.000000)" fill="#222222">
            <g id="header" sketch:type="MSLayerGroup" transform="translate(1.000000, 0.000000)">
                <g id="gNav" transform="translate(752.000000, 17.000000)" sketch:type="MSShapeGroup">
                    <path d="M472.549474,14.8530526 C473.570105,16.2703158 474.912421,17.2530526 476.537684,17.7827368 C476.727158,17.8206316 476.859368,17.8012632 476.953684,17.7069474 C477.048,17.6311579 477.085895,17.5183158 477.085895,17.4046316 L477.085895,16.8370526 L477.085895,15.8922105 L476.84,15.9301053 C476.689263,15.968 476.499789,15.968 476.254737,15.968 C476.027368,15.968 475.781474,15.9494737 475.517053,15.8922105 C475.271158,15.8543158 475.026105,15.7414737 474.818105,15.5713684 C474.590737,15.4197895 474.44,15.1932632 474.345684,14.928 L474.250526,14.6829474 C474.175579,14.5313684 474.061895,14.3427368 473.910316,14.1532632 C473.759579,13.9452632 473.608,13.8130526 473.457263,13.7566316 L473.381474,13.7002105 C473.325053,13.6623158 473.287158,13.6244211 473.249263,13.5671579 C473.211368,13.5301053 473.173474,13.4728421 473.154105,13.4164211 C473.135579,13.3785263 473.154105,13.3406316 473.211368,13.3027368 C473.249263,13.2648421 473.362105,13.2463158 473.513684,13.2463158 L473.721684,13.2842105 C473.853895,13.3221053 474.042526,13.3970526 474.232,13.5301053 C474.44,13.6808421 474.610105,13.8703158 474.760842,14.0774737 C474.912421,14.3806316 475.101053,14.5877895 475.346947,14.7393684 C475.574316,14.8909474 475.800842,14.9658947 476.027368,14.9658947 C476.254737,14.9658947 476.461895,14.9473684 476.632842,14.928 C476.802105,14.8909474 476.953684,14.8336842 477.105263,14.7578947 C477.161684,14.2854737 477.331789,13.9267368 477.615579,13.6808421 C477.218105,13.6244211 476.859368,13.5671579 476.537684,13.4922105 C476.216842,13.3970526 475.895158,13.2648421 475.554947,13.0762105 C475.214737,12.8867368 474.930947,12.6416842 474.704421,12.3764211 C474.477895,12.0934737 474.288421,11.7153684 474.137684,11.2614737 C474.005474,10.8075789 473.929684,10.2787368 473.929684,9.67410526 C473.929684,8.82357895 474.213474,8.10526316 474.760842,7.49978947 C474.496421,6.85726316 474.534316,6.13894737 474.836632,5.34568421 C475.044632,5.28842105 475.346947,5.34568421 475.744421,5.49642105 C476.141053,5.648 476.443368,5.78021053 476.632842,5.89305263 C476.802105,6.00673684 476.953684,6.10105263 477.067368,6.19621053 C477.728421,6.00673684 478.408842,5.91242105 479.108632,5.91242105 C479.789053,5.91242105 480.469474,6.00673684 481.131368,6.19621053 L481.528,5.93094737 C481.792421,5.76084211 482.132632,5.61010526 482.492211,5.47789474 C482.870316,5.32631579 483.153263,5.28842105 483.342737,5.34568421 C483.663579,6.13894737 483.701474,6.85726316 483.437053,7.49978947 C483.985263,8.10526316 484.269053,8.82357895 484.269053,9.67410526 C484.269053,10.2787368 484.193263,10.8075789 484.061053,11.2614737 C483.909474,11.7338947 483.720842,12.0934737 483.493474,12.3764211 C483.266947,12.6416842 482.983158,12.8867368 482.642947,13.0762105 C482.302737,13.2648421 481.962526,13.3970526 481.641684,13.4922105 C481.32,13.5671579 480.961263,13.6244211 480.563789,13.6808421 C480.923368,13.9831579 481.112,14.4934737 481.112,15.1738947 L481.112,17.4046316 C481.112,17.5183158 481.149895,17.6311579 481.244211,17.7069474 C481.339368,17.8012632 481.471579,17.8206316 481.660211,17.7827368 C483.285474,17.2530526 484.627789,16.2703158 485.648421,14.8530526 C486.688421,13.4543158 487.198737,11.8661053 487.198737,10.1086316 C487.198737,8.63410526 486.839158,7.27326316 486.120842,6.02610526 C485.384,4.79747368 484.401263,3.81389474 483.172632,3.07705263 C481.924632,2.35873684 480.563789,2 479.108632,2 C477.634105,2 476.273263,2.35873684 475.026105,3.07705263 C473.797474,3.81389474 472.814737,4.79747368 472.077053,6.02610526 C471.358737,7.27326316 471,8.63410526 471,10.1086316 C471,11.8661053 471.510316,13.4543158 472.549474,14.8530526" id="icon_fb.svg"></path>
                </g>
            </g>
        </g>
    </g>
</svg>