<?xml version="1.0" encoding="UTF-8" standalone="no"?>
<svg width="40px" height="40px" viewBox="0 0 40 40" version="1.1" xmlns="http://www.w3.org/2000/svg" xmlns:xlink="http://www.w3.org/1999/xlink" xmlns:sketch="http://www.bohemiancoding.com/sketch/ns">
    <!-- Generator: Sketch 3.4.2 (15855) - http://www.bohemiancoding.com/sketch -->
    <title>git</title>
    <desc>Created with Sketch.</desc>
    <defs></defs>
    <g id="pc" stroke="none" stroke-width="1" fill="none" fill-rule="evenodd" sketch:type="MSPage">
        <g id="single-service" sketch:type="MSArtboardGroup" transform="translate(-365.000000, -1172.000000)">
            <rect id="bg_body--contact" fill="#F1F1F1" sketch:type="MSShapeGroup" x="0" y="0" width="1280" height="2400"></rect>
            <g id="primary:-coding" sketch:type="MSLayerGroup" transform="translate(115.000000, 230.000000)">
                <rect id="bg_content" stroke="#DEDEDE" fill="#FFFFFF" sketch:type="MSShapeGroup" x="0" y="0" width="780" height="1220"></rect>
                <path d="M289.245172,960.218275 L271.780963,942.754501 C270.775832,941.7485 269.144724,941.7485 268.137852,942.754501 L264.511718,946.381506 L269.111641,950.981864 C270.180763,950.620556 271.407031,950.863024 272.258933,951.714926 C273.116059,952.572487 273.355915,953.808768 272.985901,954.881808 L277.419536,959.315442 C278.492575,958.945428 279.729727,959.184414 280.586853,960.042845 C281.783956,961.239513 281.783956,963.179691 280.586853,964.377229 C279.388879,965.575203 277.449137,965.575203 276.250728,964.377229 C275.350071,963.476137 275.127628,962.152794 275.583833,961.043624 L271.448386,956.908612 L271.448386,967.789625 C271.740044,967.934148 272.015595,968.126991 272.258933,968.369459 C273.456036,969.566562 273.456036,971.506304 272.258933,972.705148 C271.06183,973.901816 269.120782,973.901816 267.92455,972.705148 C266.727447,971.506304 266.727447,969.566562 267.92455,968.369459 C268.220125,968.073883 268.56315,967.850134 268.928375,967.700387 L268.928375,956.718382 C268.56315,956.56907 268.220996,956.347062 267.92455,956.049745 C267.017799,955.143429 266.799708,953.812251 267.26462,952.698727 L262.729558,948.162795 L250.754175,960.137308 C249.748608,961.14418 249.748608,962.775287 250.754175,963.781289 L268.219255,981.245063 C269.224821,982.25063 270.855493,982.25063 271.862801,981.245063 L289.245172,963.862257 C290.251609,962.856255 290.251609,961.223842 289.245172,960.218275" id="git.svg" fill="#9B9B9B" sketch:type="MSShapeGroup"></path>
            </g>
        </g>
    </g>
</svg>