<?xml version="1.0" encoding="UTF-8" standalone="no"?>
<svg width="40px" height="38px" viewBox="0 0 40 38" version="1.1" xmlns="http://www.w3.org/2000/svg" xmlns:xlink="http://www.w3.org/1999/xlink" xmlns:sketch="http://www.bohemiancoding.com/sketch/ns">
    <!-- Generator: Sketch 3.4.2 (15855) - http://www.bohemiancoding.com/sketch -->
    <title>icon_diamond.svg</title>
    <desc>Created with Sketch.</desc>
    <defs></defs>
    <g id="Page-1" stroke="none" stroke-width="1" fill="none" fill-rule="evenodd" sketch:type="MSPage">
        <path d="M39.8894376,10.4660062 C39.9015725,10.4388321 39.9083141,10.4090069 39.9184265,10.3805072 C39.9366289,10.3288101 39.9555054,10.2784386 39.9676403,10.225416 C39.9743819,10.1969163 39.9757302,10.1657655 39.9804493,10.1359403 C39.9892134,10.0815921 39.995955,10.0272439 39.9973034,9.9715701 C39.9973034,9.96096557 40,9.95234939 40,9.94174486 C40,9.91854746 39.9939326,9.89535005 39.9925842,9.87215265 C39.9898876,9.82045558 39.9858426,9.77008407 39.9770785,9.72037534 C39.9703369,9.68259671 39.962247,9.64680643 39.9521346,9.61167893 C39.9406738,9.56793526 39.9271906,9.5235288 39.9103366,9.48111068 C39.8968534,9.44465762 39.8820218,9.4101929 39.8651678,9.37639097 C39.8456171,9.33463564 39.8233698,9.29619423 39.7997742,9.25709003 C39.7795493,9.22461367 39.7593245,9.1921373 39.736403,9.16231207 C39.7094366,9.125859 39.6804476,9.09271985 39.6494362,9.05891792 C39.6224698,9.02909268 39.5948292,9.00059302 39.5651661,8.97341891 C39.5516829,8.96148882 39.5415705,8.94757038 39.5280872,8.93564028 L29.303086,0.319461402 C29.0583655,0.113335891 28.7475772,0 28.4253282,0 L10.7859033,0 C10.4454519,0 10.1178097,0.126591551 9.86837005,0.3545889 L0.430114776,8.97076778 C0.423373165,8.97607005 0.418654037,8.98402344 0.412586588,8.98998849 C0.386968466,9.01451146 0.36472115,9.04168556 0.341125512,9.0675341 C0.30876578,9.10398716 0.275731886,9.13977744 0.248091281,9.17888164 C0.227866449,9.20605574 0.211686583,9.23588098 0.194158394,9.26570621 C0.168540273,9.30746154 0.144270473,9.34855409 0.124045641,9.3909722 C0.109214097,9.42344856 0.0970791971,9.45592493 0.0849442974,9.48906408 C0.0687644313,9.53413332 0.0539328873,9.57986535 0.0424721487,9.62493459 C0.0337080545,9.65873653 0.0276406047,9.69253846 0.0215731549,9.72700317 C0.0134832218,9.77870025 0.00808993309,9.82907175 0.00606744982,9.88076883 C0.00539328873,9.9013151 0,9.91987302 0,9.9404193 C0,9.95367496 0.00337080545,9.96494227 0.00404496654,9.97819793 C0.00539328873,10.0325461 0.0121348996,10.0855688 0.0202248327,10.139917 C0.0249439604,10.1697422 0.0276406047,10.200893 0.0343822156,10.2307182 C0.0458429542,10.2824153 0.0640453036,10.3327868 0.0822476531,10.3824956 C0.0923600694,10.4109952 0.0997758414,10.4408205 0.111910741,10.4693201 C0.133483896,10.5170405 0.161798662,10.5627725 0.189439267,10.6091673 C0.204944972,10.6350159 0.217079871,10.66219 0.233933899,10.6867129 C0.23460806,10.6880385 0.235282221,10.6893641 0.235956382,10.6906896 L18.8872971,37.4240416 C18.8926904,37.431995 18.9001062,37.4372972 18.9054995,37.4432623 C18.924376,37.4691108 18.9479716,37.4896571 18.9688706,37.5141801 C19.0302193,37.5864234 19.0962871,37.6527017 19.1711189,37.7110266 C19.2041528,37.7355496 19.238535,37.7574214 19.2742656,37.7806188 C19.3490975,37.8270136 19.4273002,37.8661178 19.510222,37.8985942 C19.5473008,37.9125126 19.5823572,37.9284194 19.6207844,37.9403495 C19.7434817,37.975477 19.8695498,38 20.0003371,38 L20.0057304,38 C20.0111237,38 20.0158428,37.9973489 20.0212361,37.9973489 C20.1459559,37.9946977 20.2659566,37.9728259 20.3825864,37.939024 C20.4216878,37.9270939 20.4574183,37.9118499 20.4951713,37.8966059 C20.5780931,37.8641295 20.6556217,37.8256881 20.7297794,37.7773049 C20.7648358,37.7554331 20.7998921,37.7335612 20.8322519,37.7077127 C20.9091062,37.6480622 20.9765223,37.5797956 21.0392193,37.5042383 C21.0580958,37.4823665 21.0803431,37.462483 21.0971972,37.4392856 C21.1012421,37.4339833 21.1073096,37.4286811 21.1113546,37.4240416 L39.7633695,10.6913524 L39.7653919,10.6873757 C39.7862909,10.6575505 39.8017966,10.6237486 39.819999,10.5912722 C39.8442688,10.5501796 39.8705611,10.5084243 39.8894376,10.4660062 L39.8894376,10.4660062 Z M26.8427688,11.4607385 L19.933817,32.4607385 L12.8427688,11.4607385 L26.8427688,11.4607385 L26.8427688,11.4607385 Z M15.2778386,8.0544048 L19.8365683,4.0544048 L24.2778386,8.0544048 L15.2778386,8.0544048 L15.2778386,8.0544048 Z M9.5848773,11.4607385 L14.9074377,28.4607385 L3.90743768,11.4607385 L9.5848773,11.4607385 L9.5848773,11.4607385 Z M29.3253733,11.4607385 L35.139012,11.4607385 L24.139012,28.4607385 L29.3253733,11.4607385 L29.3253733,11.4607385 Z M34.4300137,8.69664436 L28.0698078,8.69664436 L22.4300137,2.69664436 L27.6755111,2.69664436 L34.4300137,8.69664436 L34.4300137,8.69664436 Z M10.9305715,2.69664436 L16.7811505,2.69664436 L11.0707925,8.69664436 L4.78115046,8.69664436 L10.9305715,2.69664436 L10.9305715,2.69664436 Z" id="icon_diamond.svg" fill="#9B9B9B" sketch:type="MSShapeGroup"></path>
    </g>
</svg>