<?xml version="1.0" encoding="UTF-8" standalone="no"?>
<svg width="40px" height="30px" viewBox="0 0 40 30" version="1.1" xmlns="http://www.w3.org/2000/svg" xmlns:xlink="http://www.w3.org/1999/xlink" xmlns:sketch="http://www.bohemiancoding.com/sketch/ns">
    <!-- Generator: Sketch 3.4.2 (15855) - http://www.bohemiancoding.com/sketch -->
    <title>sass</title>
    <desc>Created with Sketch.</desc>
    <defs></defs>
    <g id="pc" stroke="none" stroke-width="1" fill="none" fill-rule="evenodd" sketch:type="MSPage">
        <g id="single-service" sketch:type="MSArtboardGroup" transform="translate(-261.000000, -1173.000000)">
            <rect id="bg_body--contact" fill="#F1F1F1" sketch:type="MSShapeGroup" x="0" y="0" width="1280" height="2400"></rect>
            <g id="primary:-coding" sketch:type="MSLayerGroup" transform="translate(115.000000, 230.000000)">
                <rect id="bg_content" stroke="#DEDEDE" fill="#FFFFFF" sketch:type="MSShapeGroup" x="0" y="0" width="780" height="1220"></rect>
                <path d="M174.282852,965.657321 C174.155938,965.567064 174.177041,965.275118 174.594442,964.365833 C174.758306,964.00875 175.132185,963.407696 175.782091,962.833295 C175.857378,963.069525 175.903309,963.296043 175.902068,963.507007 C175.89367,964.913799 174.889894,965.439274 174.282852,965.657321 M168.939891,966.875348 C168.769747,966.96429 168.613697,967.020226 168.541258,966.977069 C168.488097,966.945377 168.611433,966.828102 168.611433,966.828102 C168.611433,966.828102 169.479021,965.894866 169.820624,965.469944 C170.019393,965.22276 170.249854,964.929426 170.501054,964.601333 C170.503026,964.63412 170.504194,964.666689 170.504194,964.698746 C170.501638,965.81695 169.421552,966.57179 168.939891,966.875348 M162.004295,963.56601 C161.602959,964.544448 160.762973,967.04761 160.251738,966.913466 C159.812869,966.798308 159.545531,964.89547 160.16411,963.02279 C160.475408,962.080207 161.140357,960.953751 161.531104,960.516635 C162.15998,959.813056 162.852459,959.58296 163.020704,959.868262 C163.235173,960.231625 162.255933,962.952688 162.004295,963.56601 M153.609476,969.272991 C152.457243,970.530086 150.847301,971.005101 150.157012,970.604934 C149.411592,970.17271 149.706824,968.32201 151.120918,966.988096 C151.982811,966.175056 153.095466,965.426276 153.833511,964.965134 C154.001464,964.863997 154.248283,964.715614 154.548262,964.535904 C154.597918,964.507498 154.626032,964.491798 154.626032,964.491798 L154.624863,964.489972 C154.682771,964.455286 154.742065,964.419797 154.803405,964.383139 C155.317926,966.281961 154.819032,967.953535 153.609476,969.272991 M180.424321,960.232793 C179.026365,960.240169 177.815495,960.575783 176.800472,961.076138 C176.429222,960.335172 176.053518,959.683367 175.990426,959.198785 C175.916746,958.633001 175.831309,958.295488 175.920324,957.621484 C176.009339,956.94748 176.39921,955.992994 176.393514,955.921504 C176.387818,955.850015 176.306105,955.50666 175.49971,955.500891 C174.693315,955.495049 174.003611,955.655992 173.922409,955.868928 C173.841208,956.081863 173.68596,956.560968 173.589424,957.060593 C173.448124,957.791847 171.979481,960.399432 171.145484,961.763725 C170.872815,961.231313 170.640893,960.761773 170.592552,960.390524 C170.518872,959.82474 170.433434,959.487227 170.52245,958.81315 C170.611465,958.139219 171.001336,957.184733 170.99564,957.113243 C170.989944,957.041753 170.908231,956.698398 170.101836,956.692556 C169.295441,956.686787 168.605737,956.847657 168.524608,957.060593 C168.443333,957.273529 168.356728,957.771036 168.191549,958.252405 C168.026298,958.733773 166.074023,963.083619 165.562715,964.211097 C165.302168,964.78557 165.075431,965.247077 164.915364,965.562318 C164.914853,965.561588 164.914269,965.560565 164.914269,965.560565 C164.914269,965.560565 164.904484,965.581523 164.887469,965.616939 C164.750405,965.885226 164.668911,966.033683 164.668911,966.033683 C164.668911,966.033683 164.669787,966.0358 164.671248,966.039232 C164.562589,966.236322 164.44619,966.419318 164.388502,966.419318 C164.348193,966.419318 164.267429,965.894793 164.406027,965.175003 C164.696514,963.665979 165.394469,961.312733 165.387459,961.231751 C165.383881,961.190127 165.517221,960.780102 164.931794,960.565706 C164.362725,960.357444 164.160085,960.704888 164.108093,960.705911 C164.057853,960.707006 164.020465,960.828663 164.020465,960.828663 C164.020465,960.828663 164.654452,958.182302 162.811201,958.182302 C161.658822,958.182302 160.062024,959.442902 159.275345,960.585568 C158.779006,960.856338 157.716738,961.436216 156.589625,962.055452 C156.156744,962.293289 155.715099,962.53631 155.296165,962.767063 C155.267686,962.735517 155.239353,962.703971 155.210071,962.672644 C152.974977,960.288145 148.843252,958.601455 149.018581,955.395737 C149.08233,954.230287 149.48739,951.161488 156.957662,947.439131 C163.077078,944.389828 167.975912,945.228938 168.822543,947.088546 C170.03188,949.745422 166.204296,954.683396 159.84938,955.395737 C157.428077,955.667092 156.153166,954.728744 155.836026,954.379255 C155.502237,954.011291 155.452435,953.994714 155.327784,954.063721 C155.124707,954.17625 155.253374,954.50113 155.327784,954.694715 C155.517572,955.188498 156.296145,956.064192 157.623633,956.499848 C158.791347,956.883001 161.63414,957.093527 165.071999,955.763774 C168.922512,954.274393 171.929168,950.131131 171.046026,946.668006 C170.147914,943.145732 164.307738,941.987804 158.780321,943.95147 C155.490772,945.120206 151.929577,946.954403 149.369092,949.349417 C146.324682,952.19703 145.839151,954.67551 146.039235,955.711125 C146.750042,959.390909 151.821868,961.787092 153.852789,963.563016 C153.752601,963.618295 153.658547,963.670214 153.57311,963.71746 C152.554802,964.221101 148.688735,966.244355 147.721689,968.382108 C146.624735,970.806989 147.896287,972.54684 148.738172,972.781098 C151.346414,973.506803 154.023006,972.201367 155.461417,970.055873 C156.899536,967.91089 156.723842,965.117899 156.063858,963.842987 C156.05568,963.827214 156.046625,963.811733 156.038154,963.79596 C156.30111,963.640348 156.569252,963.482106 156.834983,963.326056 C157.353229,963.021768 157.861835,962.737927 158.303406,962.497608 C158.056442,963.17446 157.87549,963.985747 157.781364,965.157404 C157.670806,966.533891 158.234838,968.313101 158.973102,969.013102 C159.298128,969.32126 159.689167,969.328489 159.937008,969.328489 C160.79598,969.328489 161.187895,968.613884 161.619462,967.768714 C162.148808,966.732149 162.61842,965.525441 162.61842,965.525441 C162.61842,965.525441 162.028903,968.785196 163.634902,968.785196 C164.220037,968.785196 164.80875,968.026412 165.070903,967.639609 C165.071561,967.643771 165.071999,967.646035 165.071999,967.646035 C165.071999,967.646035 165.087188,967.620915 165.116981,967.57031 C165.177809,967.477424 165.212203,967.418275 165.212203,967.418275 C165.212203,967.418275 165.213372,967.412141 165.21527,967.40148 C165.450478,966.993061 165.972083,966.061943 166.754453,964.526557 C167.76524,962.542736 168.734769,960.057465 168.734769,960.057465 C168.734769,960.057465 168.825026,960.665091 169.120404,961.66989 C169.2942,962.261013 169.663332,962.914497 169.954621,963.541182 C169.720217,963.866573 169.576069,964.053367 169.576069,964.053367 C169.576069,964.053367 169.577384,964.056799 169.580012,964.063079 C169.392562,964.311796 169.182474,964.580229 168.962747,964.841944 C168.164969,965.792195 167.214718,966.877173 167.087439,967.19037 C166.937522,967.559356 166.972938,967.830856 167.262621,968.049123 C167.474316,968.208678 167.851042,968.23336 168.244126,968.206853 C168.960995,968.158657 169.465439,967.980846 169.714302,967.872553 C170.102347,967.735342 170.554069,967.519558 170.978114,967.207896 C171.760777,966.632546 172.232799,965.809501 172.187451,964.719265 C172.162331,964.11843 171.970719,963.522926 171.728355,962.960721 C171.799333,962.858634 171.870604,962.755672 171.941947,962.651248 C173.175747,960.847649 174.132643,958.865726 174.132643,958.865726 C174.132643,958.865726 174.2229,959.473279 174.518352,960.478078 C174.667757,960.986685 174.962698,961.541515 175.227918,962.085611 C174.067945,963.028194 173.348447,964.123396 173.098635,964.841944 C172.636836,966.170747 172.99852,966.772896 173.677051,966.909961 C173.984406,966.972104 174.418456,966.831242 174.745016,966.693082 C175.151317,966.558281 175.63955,966.333954 176.095579,965.998705 C176.878242,965.423355 177.630673,964.617763 177.585326,963.527527 C177.564514,963.031188 177.430005,962.538574 177.247374,962.065383 C178.230705,961.655723 179.503864,961.427964 181.125417,961.617313 C184.604315,962.023541 185.286716,964.195689 185.156297,965.104901 C185.025804,966.014039 184.296157,966.51381 184.052113,966.664676 C183.808216,966.815542 183.733805,966.8679 183.754252,966.980136 C183.783899,967.143343 183.89672,967.137063 184.104763,967.101939 C184.39116,967.053598 185.931511,966.362433 185.997524,964.684287 C186.081209,962.553763 184.039991,960.213515 180.424321,960.232793" id="icon_sass.svg" fill="#9B9B9B" sketch:type="MSShapeGroup"></path>
            </g>
        </g>
    </g>
</svg>