<?xml version="1.0" encoding="UTF-8" standalone="no"?>
<svg width="40px" height="39px" viewBox="0 0 40 39" version="1.1" xmlns="http://www.w3.org/2000/svg" xmlns:xlink="http://www.w3.org/1999/xlink" xmlns:sketch="http://www.bohemiancoding.com/sketch/ns">
    <!-- Generator: Sketch 3.4.2 (15855) - http://www.bohemiancoding.com/sketch -->
    <title>diamond</title>
    <desc>Created with Sketch.</desc>
    <defs></defs>
    <g id="pc" stroke="none" stroke-width="1" fill="none" fill-rule="evenodd" sketch:type="MSPage">
        <g id="single-service" sketch:type="MSArtboardGroup" transform="translate(-275.000000, -1171.000000)">
            <rect id="bg_body--contact" fill="#F1F1F1" sketch:type="MSShapeGroup" x="0" y="0" width="1280" height="2400"></rect>
            <g id="primary:-design" sketch:type="MSLayerGroup" transform="translate(115.000000, 230.000000)">
                <rect id="bg_content" stroke="#9B9B9B" fill="#FFFFFF" sketch:type="MSShapeGroup" x="0" y="0" width="780" height="1270"></rect>
                <path d="M199.889438,951.645678 C199.901572,951.618037 199.908314,951.5877 199.918427,951.558711 C199.936629,951.506126 199.955505,951.45489 199.96764,951.400957 C199.974382,951.371968 199.97573,951.340283 199.980449,951.309946 C199.989213,951.254664 199.995955,951.199383 199.997303,951.142754 C199.997303,951.131967 200,951.123203 200,951.112416 C200,951.088821 199.993933,951.065225 199.992584,951.041629 C199.989888,950.989045 199.985843,950.937809 199.977079,950.887247 C199.970337,950.848819 199.962247,950.812415 199.952135,950.776684 C199.940674,950.73219 199.927191,950.687021 199.910337,950.643874 C199.896853,950.606796 199.882022,950.571739 199.865168,950.537357 C199.845617,950.494885 199.82337,950.455783 199.799774,950.416008 C199.779549,950.382974 199.759324,950.34994 199.736403,950.319603 C199.709437,950.282524 199.680448,950.248816 199.649436,950.214434 C199.62247,950.184097 199.594829,950.155108 199.565166,950.127467 C199.551683,950.115332 199.54157,950.101175 199.528087,950.08904 L189.303086,941.324946 C189.058365,941.115282 188.747577,941 188.425328,941 L170.785903,941 C170.445452,941 170.11781,941.128765 169.86837,941.360676 L160.430115,950.12477 C160.423373,950.130164 160.418654,950.138254 160.412587,950.144321 C160.386968,950.169265 160.364721,950.196906 160.341126,950.223198 C160.308766,950.260277 160.275732,950.296681 160.248091,950.336457 C160.227866,950.364098 160.211687,950.394435 160.194158,950.424772 C160.16854,950.467244 160.14427,950.509042 160.124046,950.552188 C160.109214,950.585222 160.097079,950.618256 160.084944,950.651964 C160.068764,950.697807 160.053933,950.744324 160.042472,950.790167 C160.033708,950.82455 160.027641,950.858932 160.021573,950.893988 C160.013483,950.946573 160.00809,950.997809 160.006067,951.050394 C160.005393,951.071293 160,951.090169 160,951.111068 C160,951.124551 160.003371,951.136012 160.004045,951.149495 C160.005393,951.204776 160.012135,951.258709 160.020225,951.313991 C160.024944,951.344328 160.027641,951.376013 160.034382,951.406351 C160.045843,951.458935 160.064045,951.510171 160.082248,951.560733 C160.09236,951.589722 160.099776,951.62006 160.111911,951.649049 C160.133484,951.697588 160.161799,951.744105 160.189439,951.791297 C160.204945,951.817589 160.21708,951.845229 160.233934,951.870173 C160.234608,951.871522 160.235282,951.87287 160.235956,951.874218 L178.887297,979.066506 C178.89269,979.074596 178.900106,979.079989 178.905499,979.086057 C178.924376,979.112349 178.947972,979.133248 178.968871,979.158192 C179.030219,979.231675 179.096287,979.299092 179.171119,979.358418 C179.204153,979.383362 179.238535,979.405609 179.274266,979.429205 C179.349097,979.476396 179.4273,979.516171 179.510222,979.549205 C179.547301,979.563363 179.582357,979.579543 179.620784,979.591677 C179.743482,979.627408 179.86955,979.652352 180.000337,979.652352 L180.00573,979.652352 C180.011124,979.652352 180.015843,979.649655 180.021236,979.649655 C180.145956,979.646959 180.265957,979.624711 180.382586,979.590329 C180.421688,979.578194 180.457418,979.562689 180.495171,979.547183 C180.578093,979.514149 180.655622,979.475048 180.729779,979.425834 C180.764836,979.403587 180.799892,979.381339 180.832252,979.355047 C180.909106,979.294372 180.976522,979.224934 181.039219,979.148079 C181.058096,979.125832 181.080343,979.105607 181.097197,979.082012 C181.101242,979.076618 181.10731,979.071225 181.111355,979.066506 L199.763369,951.874893 C199.764044,951.873544 199.764718,951.872196 199.765392,951.870848 C199.786291,951.84051 199.801797,951.806128 199.819999,951.773094 C199.844269,951.731296 199.870561,951.688824 199.889438,951.645678 L199.889438,951.645678 Z M186.940826,952.460739 L179.983483,973.973219 L172.842769,952.460739 L186.940826,952.460739 L186.940826,952.460739 Z M175.277839,949.764094 L179.987528,945.054405 L184.575868,949.764094 L175.277839,949.764094 L175.277839,949.764094 Z M170.00118,952.460739 L175.714021,969.672745 L163.907438,952.460739 L170.00118,952.460739 L170.00118,952.460739 Z M189.774325,952.460739 L196.091214,952.460739 L184.139012,969.885106 L189.774325,952.460739 L189.774325,952.460739 Z M195.007163,949.764094 L188.341058,949.764094 L182.430014,943.696644 L187.927797,943.696644 L195.007163,949.764094 L195.007163,949.764094 Z M171.31512,943.696644 L177.531559,943.696644 L171.464109,949.764094 L164.78115,949.764094 L171.31512,943.696644 L171.31512,943.696644 Z" id="icon_diamond.svg" fill="#9B9B9B" sketch:type="MSShapeGroup"></path>
            </g>
        </g>
    </g>
</svg>