<?xml version="1.0" encoding="UTF-8" standalone="no"?>
<svg width="18px" height="17px" viewBox="0 0 18 17" version="1.1" xmlns="http://www.w3.org/2000/svg" xmlns:xlink="http://www.w3.org/1999/xlink" xmlns:sketch="http://www.bohemiancoding.com/sketch/ns">
    <!-- Generator: Sketch 3.4.2 (15855) - http://www.bohemiancoding.com/sketch -->
    <title>icon_po.svg</title>
    <desc>Created with Sketch.</desc>
    <defs></defs>
    <g id="pc" stroke="none" stroke-width="1" fill="none" fill-rule="evenodd" sketch:type="MSPage">
        <g id="single" sketch:type="MSArtboardGroup" transform="translate(-830.000000, -2667.000000)" fill="#FFFFFF">
            <g id="article" sketch:type="MSLayerGroup" transform="translate(205.000000, 220.000000)">
                <g id="sns" transform="translate(115.000000, 2290.000000)" sketch:type="MSShapeGroup">
                    <path d="M525,157 L513,157 C511.344,157 510,158.344 510,160 L510,164.5 C510,169.4695 514.0305,173.5 519,173.5 C523.9695,173.5 528,169.4695 528,164.5 L528,160 C528,158.344 526.656,157 525,157 L525,157 Z M524.5605,164.0605 L520.3185,168.3025 L520.269,168.253 C520.0065,168.691 519.5475,169 519,169 C518.4525,169 517.9935,168.691 517.731,168.253 L517.6815,168.3025 L513.4395,164.0605 C512.853,163.474 512.853,162.5245 513.4395,161.9395 C514.0245,161.353 514.974,161.353 515.5605,161.9395 L519,165.379 L522.4395,161.9395 C523.026,161.353 523.974,161.353 524.5605,161.9395 C525.147,162.5245 525.147,163.474 524.5605,164.0605 L524.5605,164.0605 Z" id="icon_po.svg"></path>
                </g>
            </g>
        </g>
    </g>
</svg>