<?xml version="1.0" encoding="UTF-8" standalone="no"?>
<svg width="34px" height="41px" viewBox="0 0 34 41" version="1.1" xmlns="http://www.w3.org/2000/svg" xmlns:xlink="http://www.w3.org/1999/xlink" xmlns:sketch="http://www.bohemiancoding.com/sketch/ns">
    <!-- Generator: Sketch 3.4.2 (15855) - http://www.bohemiancoding.com/sketch -->
    <title>icon_head.svg</title>
    <desc>Created with Sketch.</desc>
    <defs></defs>
    <g id="Page-1" stroke="none" stroke-width="1" fill="none" fill-rule="evenodd" sketch:type="MSPage">
        <g id="icon_head.svg" sketch:type="MSLayerGroup" fill="#9B9B9B">
            <path d="M14.4523597,12.9522959 C16.1103928,12.9522959 17.4529011,11.6098839 17.4529011,9.95175459 C17.4529011,8.29367338 16.1104409,6.95121323 14.4523597,6.95121323 C12.7942785,6.95121323 11.4518183,8.29367338 11.4518183,9.95175459 C11.4518183,11.6053606 12.7942785,12.9522959 14.4523597,12.9522959" id="Fill-1" sketch:type="MSShapeGroup"></path>
            <path d="M6.52484195,11.4459566 C6.52484195,11.1611134 6.69532777,10.9073466 6.9600908,10.7960978 L8.62021471,10.092855 C8.79521768,10.0172116 8.93432634,9.87478997 9.00616353,9.70119558 C9.01510067,9.67893618 9.02403782,9.66115757 9.02860354,9.63889817 C9.10039216,9.46535196 9.10039216,9.27393077 9.02860354,9.10033637 L8.34656311,7.45795898 C8.23888018,7.19542335 8.29716593,6.88827256 8.50364321,6.68798616 L9.26189226,5.93579196 C9.46380382,5.73550556 9.76892972,5.67325633 10.0336442,5.78002436 L11.7162081,6.45214254 C11.8867425,6.51892074 12.0797169,6.51892074 12.2546713,6.45214254 C12.2681256,6.44766175 12.2860485,6.43879654 12.2995028,6.43431575 C12.4790229,6.36310495 12.6226001,6.22516414 12.6988573,6.04713713 L13.394352,4.39584634 C13.5065035,4.13326253 13.7667494,3.95966813 14.0539039,3.95966813 L15.1262646,3.95966813 C15.413419,3.95966813 15.6691963,4.12882992 15.7813964,4.39141373 L16.4992826,6.06048313 C16.5755398,6.23402935 16.7146484,6.36753756 16.8896028,6.43879654 C16.8985885,6.44322915 16.9075743,6.44766175 16.91656,6.44766175 C17.0915144,6.51892074 17.2890059,6.52330516 17.4639603,6.44766175 L19.1420557,5.76224575 C19.4067701,5.65542954 19.7163646,5.71324616 19.9182762,5.91806153 L20.6765738,6.67020755 C20.8784853,6.87049395 20.9412882,7.17316395 20.8336053,7.43574776 L20.1516135,9.12702838 C20.0842934,9.30062278 20.0842934,9.49199578 20.1561306,9.66115757 C20.1561306,9.66563836 20.1606477,9.67002279 20.1606477,9.67450357 C20.2324364,9.85253058 20.3714965,9.99495218 20.550968,10.0705956 L22.2380976,10.7694058 C22.5028121,10.8806546 22.6778151,11.1388058 22.6778151,11.423649 L22.6778151,12.4873784 C22.6778151,12.7722216 22.5072807,13.0259402 22.2426148,13.1372372 L20.5464994,13.853826 C20.371545,13.9294694 20.2324364,14.0674584 20.1606477,14.2454854 L20.151662,14.2677448 C20.084342,14.4368584 20.084342,14.6282796 20.1561792,14.7973932 L20.8561425,16.4708952 C20.968294,16.733479 20.9054911,17.0405816 20.6991109,17.240868 L19.9408133,17.9930622 C19.7389018,18.1933486 19.4337759,18.2555979 19.16911,18.1488298 L17.4640575,17.4723272 C17.2935231,17.405549 17.1005972,17.405549 16.9256428,17.4767598 C16.9166571,17.4812406 16.9032028,17.4856732 16.8942171,17.490154 C16.7192141,17.5613648 16.580154,17.6993056 16.5038483,17.8729482 L15.8128707,19.5419694 C15.7007192,19.8046014 15.4404733,19.9781958 15.1533674,19.9781958 L14.0809582,19.9781958 C13.7938037,19.9781958 13.5380264,19.809034 13.4258749,19.5464502 L12.7124573,17.890775 C12.6361515,17.712748 12.4881057,17.5747108 12.3086342,17.5079808 C12.2951799,17.5035 12.2772085,17.4946348 12.2637542,17.4902022 C12.0887512,17.423424 11.8958254,17.423424 11.7253395,17.4902022 L10.0606985,18.1711856 C9.79593546,18.2779536 9.4862924,18.220137 9.28438085,18.015418 L8.52613179,17.2632238 C8.32422024,17.0629374 8.26141734,16.7602674 8.36910026,16.4976836 L9.04215498,14.8375276 C9.11394359,14.6639814 9.10942645,14.4726084 9.03758926,14.2989658 C9.02870068,14.2767064 9.01971496,14.2589278 9.01068067,14.2366684 C8.93889205,14.0586414 8.7997834,13.9162679 8.62031185,13.845009 L6.96912509,13.1640256 C6.70441064,13.0527286 6.52940767,12.7945774 6.52940767,12.5097342 L6.52940767,11.4460529 L6.52484195,11.4460529 L6.52484195,11.4459566 Z M4.81532087,34.9017249 L4.81532087,38.9252797 C4.81532087,39.539485 5.31784119,40.0379606 5.93703015,40.0379606 L21.7176059,40.0379606 C22.3367948,40.0379606 22.8393152,39.539485 22.8393152,38.9252797 L22.8393152,35.0041085 L25.4511482,35.0041085 C27.2144865,35.0041085 30.1469398,28.6206721 30.4491028,26.2626695 L33.0291216,26.2137181 C34.0521337,26.1959395 34.2242224,24.223381 33.7440935,23.3288134 L31.4003263,18.9455428 C30.7721516,17.7705646 30.4446343,16.4619818 30.4446343,15.1356204 C30.4446343,6.75476436 23.5616699,-0.028281283 15.0947902,0.0384487304 C6.65491632,0.105226924 -0.0844708122,6.91949354 0.000820670455,15.2914362 C0.027729259,17.7037382 0.624478209,19.9825802 1.66094458,21.9943577 C3.72950589,25.9956531 4.81532087,30.4152999 4.81532087,34.9017249 L4.81532087,34.9017249 Z" id="Fill-3" sketch:type="MSShapeGroup"></path>
        </g>
    </g>
</svg>