<?xml version="1.0" encoding="UTF-8" standalone="no"?>
<svg width="17px" height="17px" viewBox="0 0 17 17" version="1.1" xmlns="http://www.w3.org/2000/svg" xmlns:xlink="http://www.w3.org/1999/xlink" xmlns:sketch="http://www.bohemiancoding.com/sketch/ns">
    <!-- Generator: Sketch 3.4.2 (15855) - http://www.bohemiancoding.com/sketch -->
    <title>icon_gh.svg</title>
    <desc>Created with Sketch.</desc>
    <defs></defs>
    <g id="pc" stroke="none" stroke-width="1" fill="none" fill-rule="evenodd" sketch:type="MSPage">
        <g id="single-service" sketch:type="MSArtboardGroup" transform="translate(-1193.000000, -18.000000)" fill="#222222">
            <g id="header" sketch:type="MSLayerGroup" transform="translate(1.000000, 0.000000)">
                <g id="gNav" transform="translate(752.000000, 17.000000)" sketch:type="MSShapeGroup">
                    <path d="M440.888421,16.2917895 C441.493053,16.8770526 442.192842,17.1802105 443.043368,17.1802105 L448.770526,17.1802105 L448.770526,10.7717895 L446.407579,10.7717895 L446.407579,8.40968421 L448.770526,8.40968421 L448.770526,6.65136842 C448.770526,5.65010526 449.053474,4.856 449.639579,4.28926316 C450.207158,3.72168421 450.981895,3.43873684 451.926737,3.43873684 C452.531368,3.43873684 453.155368,3.47578947 453.835789,3.53305263 L453.835789,5.70652632 L452.437053,5.72589474 C451.964632,5.72589474 451.624421,5.82021053 451.435789,6.02821053 C451.227789,6.23621053 451.132632,6.51915789 451.132632,6.89726316 L451.132632,8.40968421 L453.589895,8.40968421 L453.269053,10.7717895 L451.132632,10.7717895 L451.132632,17.1802105 L453.155368,17.1802105 C453.987368,17.1802105 454.705684,16.8770526 455.310316,16.2917895 C455.896421,15.7056842 456.198737,14.9873684 456.198737,14.1368421 L456.198737,4.024 C456.198737,3.19284211 455.896421,2.47452632 455.310316,1.88842105 C454.705684,1.30231579 454.005895,1 453.155368,1 L443.043368,1 C442.192842,1 441.493053,1.30231579 440.888421,1.88842105 C440.302316,2.47452632 440,3.19284211 440,4.024 L440,14.1368421 C440,14.9873684 440.302316,15.7056842 440.888421,16.2917895" id="icon_gh.svg"></path>
                </g>
            </g>
        </g>
    </g>
</svg>