<?xml version="1.0" encoding="UTF-8" standalone="no"?>
<svg width="18px" height="16px" viewBox="0 0 18 16" version="1.1" xmlns="http://www.w3.org/2000/svg" xmlns:xlink="http://www.w3.org/1999/xlink" xmlns:sketch="http://www.bohemiancoding.com/sketch/ns">
    <!-- Generator: Sketch 3.4.2 (15855) - http://www.bohemiancoding.com/sketch -->
    <title>icon_ha.svg</title>
    <desc>Created with Sketch.</desc>
    <defs></defs>
    <g id="pc" stroke="none" stroke-width="1" fill="none" fill-rule="evenodd" sketch:type="MSPage">
        <g id="single" sketch:type="MSArtboardGroup" transform="translate(-497.000000, -2668.000000)" fill="#FFFFFF">
            <g id="article" sketch:type="MSLayerGroup" transform="translate(205.000000, 220.000000)">
                <g id="sns" transform="translate(115.000000, 2290.000000)" sketch:type="MSShapeGroup">
                    <g id="icon_ha.svg" transform="translate(177.000000, 158.000000)">
                        <path d="M14.1085714,10.2 L17.64,10.2 L17.64,0.12 L14.1085714,0.12 L14.1085714,10.2 Z" id="Fill-1"></path>
                        <g id="Group-6" transform="translate(0.000000, 0.171429)">
                            <path d="M7.26857143,11.9314286 C6.87428571,12.1714286 6.18857143,12.2914286 5.21142857,12.2914286 L3.78857143,12.2914286 L3.78857143,9.01714286 L5.28,9.01714286 C6.27428571,9.01714286 6.96,9.13714286 7.32,9.39428571 C7.69714286,9.65142857 7.86857143,10.08 7.86857143,10.7142857 C7.86857143,11.28 7.66285714,11.6914286 7.26857143,11.9314286 L7.26857143,11.9314286 Z M3.78857143,3.34285714 L4.66285714,3.34285714 C5.67428571,3.34285714 6.36,3.46285714 6.70285714,3.68571429 C7.04571429,3.90857143 7.23428571,4.30285714 7.23428571,4.86857143 C7.23428571,5.41714286 7.04571429,5.79428571 6.66857143,6.01714286 C6.29142857,6.24 5.60571429,6.34285714 4.59428571,6.34285714 L3.77142857,6.34285714 L3.78857143,3.34285714 Z M10.8514286,8.04 C10.2514286,7.37142857 9.42857143,6.99428571 8.36571429,6.90857143 C9.30857143,6.65142857 9.99428571,6.27428571 10.44,5.76 C10.8685714,5.26285714 11.0914286,4.57714286 11.0914286,3.73714286 C11.0914286,3.06857143 10.9371429,2.46857143 10.6628571,1.95428571 C10.3714286,1.44 9.94285714,1.02857143 9.39428571,0.72 C8.91428571,0.445714286 8.33142857,0.274285714 7.66285714,0.154285714 C6.99428571,0.0514285714 5.81142857,-2.20878871e-13 4.11428571,-2.20878871e-13 L0,-2.20878871e-13 L0,14.9828571 L4.23428571,14.9828571 C5.93142857,14.9828571 7.16571429,14.9314286 7.92,14.8114286 C8.67428571,14.6914286 9.29142857,14.5028571 9.80571429,14.2285714 C10.44,13.9028571 10.92,13.4228571 11.2457143,12.8228571 C11.5885714,12.2057143 11.7428571,11.5028571 11.7428571,10.7142857 C11.7428571,9.6 11.4342857,8.70857143 10.8514286,8.04 L10.8514286,8.04 Z" id="Fill-2"></path>
                            <path d="M15.8742857,11.04 C14.76,11.04 13.8514286,11.9485714 13.8514286,13.0628571 C13.8514286,14.1771429 14.76,15.0857143 15.8742857,15.0857143 C16.9885714,15.0857143 17.8971429,14.1771429 17.8971429,13.0628571 C17.8971429,11.9485714 16.9885714,11.04 15.8742857,11.04" id="Fill-4"></path>
                        </g>
                    </g>
                </g>
            </g>
        </g>
    </g>
</svg>