<?xml version="1.0" encoding="UTF-8" standalone="no"?>
<svg width="16px" height="16px" viewBox="0 0 16 16" version="1.1" xmlns="http://www.w3.org/2000/svg" xmlns:xlink="http://www.w3.org/1999/xlink" xmlns:sketch="http://www.bohemiancoding.com/sketch/ns">
    <!-- Generator: Sketch 3.4.2 (15855) - http://www.bohemiancoding.com/sketch -->
    <title>icon_fb.svg</title>
    <desc>Created with Sketch.</desc>
    <defs></defs>
    <g id="pc" stroke="none" stroke-width="1" fill="none" fill-rule="evenodd" sketch:type="MSPage">
        <g id="single" sketch:type="MSArtboardGroup" transform="translate(-337.000000, -2667.000000)" fill="#FFFFFF">
            <g id="article" sketch:type="MSLayerGroup" transform="translate(205.000000, 220.000000)">
                <g id="sns" transform="translate(115.000000, 2290.000000)" sketch:type="MSShapeGroup">
                    <path d="M30.7142857,157 L19.2857143,157 C18.024,157 17,158.024 17,159.285714 L17,170.714286 C17,171.976 18.024,173 19.2857143,173 L25.7485714,173 L25.7485714,166.649143 L23.4777143,166.649143 L23.4777143,164.333714 L25.7485714,164.333714 L25.7485714,162.219429 C25.7485714,160.665143 26.7531429,159.237714 29.0708571,159.237714 C30.0068571,159.237714 30.7005714,159.326857 30.7005714,159.326857 L30.648,161.490286 C30.648,161.490286 29.9394286,161.484571 29.1657143,161.484571 C28.3325714,161.484571 28.1965714,161.869714 28.1965714,162.506286 L28.1965714,162.613714 L28.1965714,162.616 L28.1965714,164.333714 L30.7142857,164.333714 L30.6034286,166.650286 L28.1977143,166.650286 L28.1977143,173 L30.7142857,173 C31.976,173 33,171.976 33,170.714286 L33,159.285714 C33,158.024 31.976,157 30.7142857,157 L30.7142857,157 Z" id="icon_fb.svg"></path>
                </g>
            </g>
        </g>
    </g>
</svg>