<?xml version="1.0" encoding="UTF-8" standalone="no"?>
<svg width="34px" height="40px" viewBox="0 0 34 40" version="1.1" xmlns="http://www.w3.org/2000/svg" xmlns:xlink="http://www.w3.org/1999/xlink" xmlns:sketch="http://www.bohemiancoding.com/sketch/ns">
    <!-- Generator: Sketch 3.4.2 (15855) - http://www.bohemiancoding.com/sketch -->
    <title>head</title>
    <desc>Created with Sketch.</desc>
    <defs></defs>
    <g id="pc" stroke="none" stroke-width="1" fill="none" fill-rule="evenodd" sketch:type="MSPage">
        <g id="single-service" sketch:type="MSArtboardGroup" transform="translate(-322.000000, -1170.000000)">
            <rect id="bg_body--contact" fill="#F1F1F1" sketch:type="MSShapeGroup" x="0" y="0" width="1280" height="2400"></rect>
            <g id="primary:-design" sketch:type="MSLayerGroup" transform="translate(115.000000, 230.000000)">
                <rect id="bg_content" stroke="#9B9B9B" fill="#FFFFFF" sketch:type="MSShapeGroup" x="0" y="0" width="780" height="1270"></rect>
                <g id="icon_head.svg" transform="translate(207.000000, 940.000000)" fill="#9B9B9B" sketch:type="MSShapeGroup">
                    <path d="M14.4523597,14.9522959 C16.1103928,14.9522959 17.4529011,13.6098839 17.4529011,11.9517546 C17.4529011,10.2936734 16.1104409,8.95121323 14.4523597,8.95121323 C12.7942785,8.95121323 11.4518183,10.2936734 11.4518183,11.9517546 C11.4518183,13.6053606 12.7942785,14.9522959 14.4523597,14.9522959" id="Fill-1"></path>
                    <path d="M6.46423579,11.4316992 C6.46423579,11.147212 6.63313805,10.8937624 6.8954418,10.7826526 L8.54014556,10.0802887 C8.71352301,10.0047398 8.85133955,9.86249624 8.92250947,9.6891188 C8.93136361,9.66688722 8.94021774,9.64913083 8.94474105,9.62689925 C9.01586286,9.45356992 9.01586286,9.26238797 8.94474105,9.08901053 L8.26903579,7.44868571 C8.16235308,7.1864782 8.22009744,6.87971128 8.42465684,6.67967519 L9.17586286,5.92842105 C9.37589895,5.72838496 9.67819068,5.66621353 9.94044632,5.77284812 L11.6073817,6.44412632 C11.776332,6.51082105 11.967514,6.51082105 12.1408433,6.44412632 C12.1541726,6.43965113 12.171929,6.43079699 12.1852583,6.4263218 C12.363111,6.3552 12.5053546,6.21743158 12.5809035,6.03962707 L13.269938,4.3904 C13.3810478,4.12814436 13.6388764,3.95476692 13.9233636,3.95476692 L14.9857636,3.95476692 C15.2702508,3.95476692 15.5236523,4.12371729 15.6348102,4.38597293 L16.3460283,6.05295639 C16.4215771,6.22628571 16.5593937,6.35962707 16.732723,6.43079699 C16.7416253,6.43522406 16.7505275,6.43965113 16.7594298,6.43965113 C16.9327591,6.51082105 17.1284162,6.5152 17.3017456,6.43965113 L18.9642538,5.75509173 C19.2265095,5.64840902 19.5332283,5.70615338 19.7332644,5.91071278 L20.4845185,6.6619188 C20.6845546,6.86195489 20.7467741,7.16424662 20.6400914,7.42650226 L19.9644343,9.11566917 C19.8977395,9.28904662 19.8977395,9.48018045 19.9689095,9.64913083 C19.9689095,9.65360602 19.9733847,9.65798496 19.9733847,9.66246015 C20.0445065,9.84026466 20.1822749,9.98250827 20.3600794,10.0580571 L22.031538,10.755994 C22.2937937,10.8671038 22.4671711,11.1249323 22.4671711,11.4094195 L22.4671711,12.4718195 C22.4671711,12.7563068 22.2982208,13.0097083 22.0360132,13.1208662 L20.3556523,13.8365594 C20.182323,13.9121083 20.0445065,14.0499248 19.9733847,14.2277293 L19.9644824,14.2499609 C19.8977877,14.4188632 19.8977877,14.6100451 19.9689576,14.7789474 L20.6624192,16.4503579 C20.773529,16.7126135 20.7113095,17.0193323 20.5068463,17.2193684 L19.7555922,17.9706226 C19.5555561,18.1706586 19.2532644,18.2328301 18.9910568,18.1261955 L17.3018418,17.4505383 C17.1328914,17.3838436 16.9417576,17.3838436 16.7684283,17.4549654 C16.759526,17.4594406 16.7461967,17.4638677 16.7372944,17.4683429 C16.563917,17.5394647 16.4261486,17.6772331 16.3505516,17.8506586 L15.6659922,19.517594 C15.5548824,19.7798977 15.2970538,19.9532752 15.0126147,19.9532752 L13.9501666,19.9532752 C13.6656794,19.9532752 13.4122779,19.7843248 13.3011681,19.5220692 L12.5943771,17.8684632 C12.5187802,17.6906586 12.3721095,17.552794 12.194305,17.4861474 C12.1809756,17.4816722 12.1631711,17.472818 12.1498418,17.468391 C11.9764644,17.4016962 11.7853305,17.4016962 11.6164283,17.468391 L9.96724932,18.1485233 C9.70494556,18.2551579 9.39817865,18.1974135 9.19814256,17.9929504 L8.44693654,17.2416962 C8.24690045,17.0416602 8.1846809,16.7393684 8.29136361,16.4771128 L8.95816662,14.8190316 C9.02928842,14.6457023 9.02481323,14.4545684 8.95364331,14.2811429 C8.94483729,14.2589113 8.93593504,14.2411549 8.92698466,14.2189233 C8.85586286,14.0411188 8.71804632,13.8989233 8.5402418,13.8277534 L6.90439218,13.1476211 C6.64213654,13.0364632 6.4687591,12.7786346 6.4687591,12.4941474 L6.4687591,11.4317955 L6.46423579,11.4317955 L6.46423579,11.4316992 Z M4.77059368,34.8581534 L4.77059368,38.8766797 C4.77059368,39.4901173 5.26844632,39.9879699 5.88188391,39.9879699 L21.5158809,39.9879699 C22.1293185,39.9879699 22.6271711,39.4901173 22.6271711,38.8766797 L22.6271711,34.960409 L25.2147441,34.960409 C26.9617035,34.960409 29.8669185,28.5849504 30.1662749,26.2298947 L32.722329,26.1810045 C33.7358388,26.1632481 33.906329,24.1931549 33.4306598,23.2997053 L31.1086629,18.9219128 C30.486323,17.748403 30.1618478,16.4414556 30.1618478,15.1167519 C30.1618478,6.74636992 23.3428162,-0.0281984962 14.9545817,0.0384481203 C6.59310195,0.105142857 -0.083686015,6.91089323 0.000813233082,15.2723729 C0.0274718797,17.6816602 0.618677895,19.9576541 1.64551699,21.9669173 C3.69486436,25.963212 4.77059368,30.3773353 4.77059368,34.8581534 L4.77059368,34.8581534 Z" id="Fill-3"></path>
                </g>
            </g>
        </g>
    </g>
</svg>