<?xml version="1.0" encoding="UTF-8" standalone="no"?>
<svg width="40px" height="40px" viewBox="0 0 40 40" version="1.1" xmlns="http://www.w3.org/2000/svg" xmlns:xlink="http://www.w3.org/1999/xlink" xmlns:sketch="http://www.bohemiancoding.com/sketch/ns">
    <!-- Generator: Sketch 3.4.2 (15855) - http://www.bohemiancoding.com/sketch -->
    <title>icon_ps.svg</title>
    <desc>Created with Sketch.</desc>
    <defs></defs>
    <g id="Page-1" stroke="none" stroke-width="1" fill="none" fill-rule="evenodd" sketch:type="MSPage">
        <g id="icon_ps.svg" sketch:type="MSLayerGroup">
            <rect id="Rectangle-225" stroke="#9B9B9B" fill="#FFFFFF" sketch:type="MSShapeGroup" x="0" y="0" width="40" height="40"></rect>
            <path d="M3,3 L37,3 L37,37 L3,37 L3,3 L3,3 Z M9.646,27.925 L12.818,27.925 L12.818,21.321 C13.234,21.399 13.78,21.425 14.378,21.425 C16.64,21.425 18.642,20.827 19.916,19.553 C20.904,18.617 21.424,17.239 21.424,15.575 C21.424,13.937 20.748,12.559 19.708,11.701 C18.59,10.765 16.874,10.271 14.534,10.271 C12.376,10.271 10.79,10.427 9.646,10.635 L9.646,27.925 L9.646,27.925 Z M12.818,12.871 C13.156,12.793 13.78,12.715 14.664,12.715 C16.874,12.715 18.226,13.755 18.226,15.705 C18.226,17.759 16.77,18.929 14.378,18.929 C13.728,18.929 13.208,18.903 12.818,18.799 L12.818,12.871 L12.818,12.871 Z M22.4454286,27.301 C23.3814286,27.821 24.7594286,28.185 26.2934286,28.185 C29.6474286,28.185 31.4414286,26.521 31.4414286,24.233 C31.4154286,22.361 30.3494286,21.191 28.0614286,20.359 C26.4494286,19.787 25.8514286,19.397 25.8514286,18.591 C25.8514286,17.811 26.4754286,17.265 27.6194286,17.265 C28.7374286,17.265 29.7514286,17.681 30.2974286,17.993 L30.9214286,15.731 C30.1934286,15.341 28.9714286,14.977 27.5674286,14.977 C24.6294286,14.977 22.7834286,16.719 22.7834286,18.955 C22.7574286,20.437 23.7974286,21.789 26.2674286,22.647 C27.8274286,23.193 28.3474286,23.635 28.3474286,24.493 C28.3474286,25.325 27.7234286,25.897 26.3194286,25.897 C25.1754286,25.897 23.7974286,25.429 23.0694286,24.987 L22.4454286,27.301 L22.4454286,27.301 Z" id="Rectangle-225" fill="#9B9B9B" sketch:type="MSShapeGroup"></path>
        </g>
    </g>
</svg>