<?xml version="1.0" encoding="UTF-8" standalone="no"?>
<svg width="20px" height="17px" viewBox="0 0 20 17" version="1.1" xmlns="http://www.w3.org/2000/svg" xmlns:xlink="http://www.w3.org/1999/xlink" xmlns:sketch="http://www.bohemiancoding.com/sketch/ns">
    <!-- Generator: Sketch 3.4.2 (15855) - http://www.bohemiancoding.com/sketch -->
    <title>icon_tw.svg</title>
    <desc>Created with Sketch.</desc>
    <defs></defs>
    <g id="pc" stroke="none" stroke-width="1" fill="none" fill-rule="evenodd" sketch:type="MSPage">
        <g id="single" sketch:type="MSArtboardGroup" transform="translate(-675.000000, -2668.000000)" fill="#FFFFFF">
            <g id="article" sketch:type="MSLayerGroup" transform="translate(205.000000, 220.000000)">
                <g id="sns" transform="translate(115.000000, 2290.000000)" sketch:type="MSShapeGroup">
                    <path d="M375,159.924286 C374.264286,160.251429 373.474286,160.471429 372.644286,160.57 C373.49,160.062857 374.141429,159.258571 374.447143,158.3 C373.655714,158.77 372.777143,159.111429 371.844286,159.295714 C371.095714,158.498571 370.028571,158 368.847143,158 C366.581429,158 364.744286,159.837143 364.744286,162.102857 C364.744286,162.424286 364.781429,162.737143 364.851429,163.037143 C361.441429,162.865714 358.417143,161.232857 356.392857,158.75 C356.04,159.355714 355.837143,160.062857 355.837143,160.814286 C355.837143,162.237143 356.56,163.492857 357.661429,164.228571 C356.99,164.207143 356.357143,164.022857 355.802857,163.715714 L355.802857,163.768571 C355.802857,165.757143 357.215714,167.414286 359.094286,167.791429 C358.75,167.884286 358.388571,167.934286 358.014286,167.934286 C357.748571,167.934286 357.492857,167.905714 357.241429,167.861429 C357.764286,169.492857 359.28,170.677143 361.074286,170.708571 C359.671429,171.81 357.9,172.465714 355.98,172.465714 C355.648571,172.465714 355.321429,172.445714 355,172.407143 C356.815714,173.572857 358.971429,174.251429 361.288571,174.251429 C368.837143,174.251429 372.965714,167.998571 372.965714,162.577143 C372.965714,162.4 372.96,162.222857 372.951429,162.047143 C373.752857,161.468571 374.45,160.747143 375,159.924286 L375,159.924286 Z" id="icon_tw.svg"></path>
                </g>
            </g>
        </g>
    </g>
</svg>