<?xml version="1.0" encoding="UTF-8" standalone="no"?>
<svg width="28px" height="40px" viewBox="0 0 28 40" version="1.1" xmlns="http://www.w3.org/2000/svg" xmlns:xlink="http://www.w3.org/1999/xlink" xmlns:sketch="http://www.bohemiancoding.com/sketch/ns">
    <!-- Generator: Sketch 3.4.2 (15855) - http://www.bohemiancoding.com/sketch -->
    <title>css3</title>
    <desc>Created with Sketch.</desc>
    <defs></defs>
    <g id="pc" stroke="none" stroke-width="1" fill="none" fill-rule="evenodd" sketch:type="MSPage">
        <g id="single-service" sketch:type="MSArtboardGroup" transform="translate(-175.000000, -1168.000000)">
            <rect id="bg_body--contact" fill="#F1F1F1" sketch:type="MSShapeGroup" x="0" y="0" width="1280" height="2400"></rect>
            <g id="primary:-coding" sketch:type="MSLayerGroup" transform="translate(115.000000, 230.000000)">
                <rect id="bg_content" stroke="#DEDEDE" fill="#FFFFFF" sketch:type="MSShapeGroup" x="0" y="0" width="780" height="1220"></rect>
                <g id="icon_css3.svg" transform="translate(60.000000, 938.000000)" sketch:type="MSShapeGroup">
                    <path d="M5.58140233,0.0479581395 L5.58140233,5.35028372 L9.90698372,5.35028372 L9.90698372,3.53633023 L7.39535581,3.53633023 L7.39535581,1.86191163 L9.90698372,1.86191163 L9.90698372,0.0479581395 L5.58140233,0.0479581395 Z" id="Fill-1" fill="#777777"></path>
                    <path d="M11.7209512,0.0479581395 L11.7209512,1.9099814 L13.5259047,3.53633023 L11.7209512,3.53633023 L11.7209512,5.35028372 L16.0465326,5.35028372 L16.0465326,3.5844 L14.4056023,1.86191163 L16.0465326,1.86191163 L16.0465326,0.0479581395 L11.7209512,0.0479581395 Z" id="Fill-2" fill="#777777"></path>
                    <path d="M18.0000209,0.0479581395 L18.0000209,1.9099814 L19.735207,3.53633023 L18.0000209,3.53633023 L18.0000209,5.35028372 L22.3256023,5.35028372 L22.3256023,3.5844 L20.6149047,1.86191163 L22.3256023,1.86191163 L22.3256023,0.0479581395 L18.0000209,0.0479581395 Z" id="Fill-3" fill="#777777"></path>
                    <path d="M0,7.77039767 L2.53967442,36.2548395 L13.9366047,39.4185837 L25.3645814,36.2501651 L27.9069767,7.77039767 L0,7.77039767 Z" id="Fill-4" fill="#9B9B9B"></path>
                    <path d="M13.9769233,36.9952744 L23.1998302,34.4580419 L25.3607372,10.1424837 L13.9769233,10.1424837 L13.9769233,36.9952744 Z" id="Fill-5" fill="#BEBCBC"></path>
                    <path d="M5.81331628,20.6075581 L6.11924651,24.0959302 L13.9769442,20.6075581 L13.9769442,17.1136047 L5.81331628,20.6075581 Z" id="Fill-6" fill="#B3B3B3"></path>
                    <path d="M22.6795953,13.3839 L13.9769442,17.1135977 L13.9769442,20.6075512 L22.3795256,16.8722721 L22.6795953,13.3839 Z" id="Fill-7" fill="#E6E6E6"></path>
                    <path d="M13.9769233,29.7348279 L13.9499233,29.7389442 L10.0530628,28.6924326 L9.7984814,25.9098977 L6.29134186,25.9098977 L6.78083023,31.3915256 L13.9491558,33.3763395 L13.9769233,33.3697814 L13.9769233,29.7348279 Z" id="Fill-8" fill="#E6E6E6"></path>
                    <path d="M13.9769233,20.6075581 L13.9769233,24.0959302 L18.2433419,24.0959302 L17.8555744,28.6566977 L13.9769233,29.737814 L13.9769233,33.3725581 L21.1215279,31.3877442 L22.0623419,20.6075581 L13.9769233,20.6075581 Z" id="Fill-9" fill="#FFFFFF"></path>
                    <path d="M13.9769233,20.6075581 L5.81329535,20.6075581 L6.11922558,24.0959302 L13.9769233,24.0959302 L13.9769233,20.6075581 Z" id="Fill-10" fill="#E6E6E6"></path>
                    <path d="M13.9769233,16.8722721 L13.9769233,13.3839 L13.9414814,13.3839 L5.19306279,13.3839 L5.50262093,16.8722721 L13.9769233,16.8722721 Z" id="Fill-11" fill="#E6E6E6"></path>
                    <path d="M13.9769233,13.3839 L13.9769233,16.8284581 L13.9769233,16.8722721 L22.3795047,16.8722721 L22.6795744,13.3839 L13.9769233,13.3839 Z" id="Fill-12" fill="#FFFFFF"></path>
                </g>
            </g>
        </g>
    </g>
</svg>