<?xml version="1.0" encoding="UTF-8" standalone="no"?>
<svg width="28px" height="40px" viewBox="0 0 28 40" version="1.1" xmlns="http://www.w3.org/2000/svg" xmlns:xlink="http://www.w3.org/1999/xlink" xmlns:sketch="http://www.bohemiancoding.com/sketch/ns">
    <!-- Generator: Sketch 3.4.2 (15855) - http://www.bohemiancoding.com/sketch -->
    <title>html5</title>
    <desc>Created with Sketch.</desc>
    <defs></defs>
    <g id="pc" stroke="none" stroke-width="1" fill="none" fill-rule="evenodd" sketch:type="MSPage">
        <g id="single-service" sketch:type="MSArtboardGroup" transform="translate(-218.000000, -1168.000000)">
            <rect id="bg_body--contact" fill="#F1F1F1" sketch:type="MSShapeGroup" x="0" y="0" width="1280" height="2400"></rect>
            <g id="primary:-coding" sketch:type="MSLayerGroup" transform="translate(115.000000, 230.000000)">
                <rect id="bg_content" stroke="#DEDEDE" fill="#FFFFFF" sketch:type="MSShapeGroup" x="0" y="0" width="780" height="1220"></rect>
                <g id="icon_html5.svg" transform="translate(103.000000, 938.000000)" sketch:type="MSShapeGroup">
                    <path d="M0,7.7355295 L2.53784355,36.2004151 L13.9261964,39.3618989 L25.3459927,36.1959562 L27.886527,7.7355295 L0,7.7355295 Z" id="Fill-1" fill="#9B9B9B"></path>
                    <path d="M13.9432635,36.941995 L23.1710167,34.3837017 L25.3420719,10.0629637 L13.9432635,10.0629637 L13.9432635,36.941995 Z" id="Fill-2" fill="#BFBDBD"></path>
                    <path d="M13.9432635,20.6201807 L9.32362099,20.6201807 L9.00457428,17.0452431 L13.9432635,17.0452431 L13.9432635,13.5541034 L13.9311935,13.5541034 L5.18923698,13.5541034 L5.27280415,14.4907169 L6.13084759,24.1112435 L13.9432635,24.1112435 L13.9432635,20.6201807 Z" id="Fill-3" fill="#ECECEC"></path>
                    <path d="M13.9432635,29.6869498 L13.9279646,29.6910244 L10.0399001,28.6411686 L9.79135114,25.8568518 L7.90205651,25.8568518 L6.28683452,25.8568518 L6.77593696,31.3383817 L13.9271958,33.323621 L13.9432635,33.319162 L13.9432635,29.6869498 Z" id="Fill-4" fill="#ECECEC"></path>
                    <path d="M5.99165097,-7.68787242e-06 L5.99165097,1.75282722 L4.36874111,1.75282722 L4.36874111,-7.68787242e-06 L2.59468768,-7.68787242e-06 L2.59468768,5.30800692 L4.36881799,5.30800692 L4.36881799,3.53057082 L5.99172785,3.53057082 L5.99172785,5.30800692 L7.76585816,5.30800692 L7.76585816,-7.68787242e-06 L5.99165097,-7.68787242e-06 Z" id="Fill-5" fill="#777777"></path>
                    <path d="M8.53697482,-7.68787242e-06 L8.53697482,1.76020757 L10.0989199,1.76020757 L10.0989199,1.76020757 L10.0989199,5.30800692 L11.873127,5.30800692 L11.873127,1.76020757 L13.4356871,1.76020757 L13.4356871,-7.68787242e-06 L8.53697482,-7.68787242e-06 Z" id="Fill-6" fill="#777777"></path>
                    <path d="M18.3378589,-7.68787242e-06 L17.2010532,1.86507015 L16.0631712,-7.68787242e-06 L14.2131616,-7.68787242e-06 L14.2131616,5.30800692 L15.9490832,5.30800692 L15.9490832,2.67706323 L17.1705324,4.56435902 L17.2010532,4.56435902 L18.4216567,2.67706323 L18.4216567,5.30800692 L20.1884836,5.30800692 L20.1884836,-7.68787242e-06 L18.3378589,-7.68787242e-06 Z" id="Fill-7" fill="#777777"></path>
                    <path d="M21.0714511,-7.68787242e-06 L21.0714511,5.30800692 L25.3410648,5.30800692 L25.3410648,3.55348068 L22.8461195,3.55348068 L22.8461195,-7.68787242e-06 L21.0714511,-7.68787242e-06 Z" id="Fill-8" fill="#777777"></path>
                    <path d="M13.9311935,20.6201807 L13.9311935,24.1112435 L18.230098,24.1112435 L17.8248703,28.6389391 L13.9311935,29.6898712 L13.9311935,33.3219297 L21.0881415,31.3383817 L21.1406496,30.7485681 L21.9610225,21.5576398 L22.0462041,20.6201807 L21.1054392,20.6201807 L13.9311935,20.6201807 Z" id="Fill-9" fill="#FFFFFF"></path>
                    <path d="M13.9311935,13.5541034 L13.9311935,15.7223909 L13.9311935,17.0367096 L13.9311935,17.0452431 L22.3526427,17.0452431 L22.363867,17.0452431 L22.4339035,16.260542 L22.5929656,14.4907169 L22.6764559,13.5541034 L13.9311935,13.5541034 Z" id="Fill-10" fill="#FFFFFF"></path>
                </g>
            </g>
        </g>
    </g>
</svg>