<?xml version="1.0" encoding="UTF-8" standalone="no"?>
<svg width="40px" height="39px" viewBox="0 0 40 39" version="1.1" xmlns="http://www.w3.org/2000/svg" xmlns:xlink="http://www.w3.org/1999/xlink" xmlns:sketch="http://www.bohemiancoding.com/sketch/ns">
    <!-- Generator: Sketch 3.4.2 (15855) - http://www.bohemiancoding.com/sketch -->
    <title>jquery</title>
    <desc>Created with Sketch.</desc>
    <defs></defs>
    <g id="pc" stroke="none" stroke-width="1" fill="none" fill-rule="evenodd" sketch:type="MSPage">
        <g id="single-service" sketch:type="MSArtboardGroup" transform="translate(-311.000000, -1172.000000)">
            <rect id="bg_body--contact" fill="#F1F1F1" sketch:type="MSShapeGroup" x="0" y="0" width="1280" height="2400"></rect>
            <g id="primary:-coding" sketch:type="MSLayerGroup" transform="translate(115.000000, 230.000000)">
                <rect id="bg_content" stroke="#DEDEDE" fill="#FFFFFF" sketch:type="MSShapeGroup" x="0" y="0" width="780" height="1220"></rect>
                <g id="icon_jquery.svg" transform="translate(196.000000, 942.000000)" fill="#9B9B9B" sketch:type="MSShapeGroup">
                    <path d="M2.51546154,9.28661538 C-0.989923077,14.3227692 -0.556846154,20.8743077 2.12546154,26.2258462 C2.18546154,26.3566154 2.25469231,26.4804615 2.32007692,26.6066154 C2.35776923,26.6881538 2.40084615,26.7704615 2.447,26.8504615 C2.46623077,26.8950769 2.49776923,26.9443077 2.52392308,26.9873846 C2.567,27.0743077 2.61315385,27.1550769 2.65853846,27.2381538 C2.74546154,27.3835385 2.83161538,27.5312308 2.917,27.6750769 C2.96623077,27.7550769 3.01238462,27.8358462 3.067,27.9158462 C3.15853846,28.0712308 3.26469231,28.2243077 3.36007692,28.3796923 C3.40238462,28.4458462 3.44315385,28.5104615 3.48930769,28.5750769 C3.62623077,28.7843077 3.76469231,28.9912308 3.917,29.1950769 C3.917,29.2012308 3.92238462,29.2066154 3.92776923,29.2089231 C3.95084615,29.2435385 3.977,29.2766154 4.00007692,29.3081538 C4.12930769,29.4850769 4.25853846,29.6573846 4.39315385,29.8281538 C4.43930769,29.8912308 4.49084615,29.9543077 4.537,30.0158462 C4.66007692,30.1658462 4.78084615,30.3143077 4.90161538,30.4627692 C4.94776923,30.5158462 4.99315385,30.572 5.04238462,30.6266154 C5.20315385,30.8204615 5.37238462,31.0127692 5.54469231,31.202 C5.54469231,31.2050769 5.55007692,31.2089231 5.55315385,31.2135385 C5.55853846,31.2204615 5.56469231,31.2273846 5.57623077,31.2350769 C5.74238462,31.4173846 5.91161538,31.5966154 6.08469231,31.7743077 C6.13853846,31.8296923 6.19315385,31.882 6.25392308,31.9396923 C6.38546154,32.0735385 6.51776923,32.2081538 6.65853846,32.3404615 C6.71623077,32.3950769 6.77315385,32.4481538 6.82776923,32.5012308 C7.01161538,32.6735385 7.19546154,32.8458462 7.38776923,33.0104615 C7.39084615,33.0135385 7.39392308,33.0150769 7.39623077,33.0181538 C7.42776923,33.0450769 7.46238462,33.0727692 7.49161538,33.0996923 C7.66007692,33.2443077 7.83007692,33.3881538 8.00238462,33.5304615 C8.07161538,33.5881538 8.14007692,33.6427692 8.20930769,33.6981538 C8.35238462,33.812 8.49623077,33.9204615 8.63930769,34.0296923 C8.71469231,34.0858462 8.78930769,34.1435385 8.86623077,34.2027692 C9.02161538,34.3181538 9.18238462,34.432 9.34007692,34.5435385 C9.39776923,34.5858462 9.45469231,34.6273846 9.51546154,34.6658462 C9.53007692,34.6789231 9.547,34.6904615 9.56161538,34.702 C9.71930769,34.8050769 9.86853846,34.9058462 10.0239231,35.0081538 C10.0923846,35.052 10.1585385,35.0950769 10.2246923,35.1396923 C10.4654615,35.2935385 10.707,35.4412308 10.9454615,35.5850769 C11.0139231,35.6204615 11.0831538,35.6596923 11.1493077,35.6981538 C11.327,35.8012308 11.5077692,35.9035385 11.6916154,36.0012308 C11.7916154,36.0573846 11.8923846,36.1058462 11.9962308,36.1573846 C12.1193077,36.2250769 12.2485385,36.2935385 12.3808462,36.3612308 C12.4123846,36.3743077 12.4439231,36.3858462 12.4723846,36.4012308 C12.527,36.4258462 12.5793077,36.4535385 12.6300769,36.4789231 C12.8316154,36.5781538 13.0385385,36.672 13.2508462,36.7666154 C13.2908462,36.7850769 13.3339231,36.802 13.377,36.8235385 C13.6154615,36.9273846 13.8539231,37.0258462 14.0977692,37.122 C14.1554615,37.1435385 14.2123846,37.1696923 14.2731538,37.1896923 C14.4939231,37.2758462 14.7239231,37.3604615 14.9500769,37.442 C14.9793077,37.4543077 15.0046923,37.4627692 15.0339231,37.4727692 C15.2862308,37.5589231 15.5362308,37.6404615 15.7916154,37.7196923 C15.8516154,37.7366154 15.9123846,37.7581538 15.9754615,37.7743077 C16.237,37.8527692 16.4893077,37.9450769 16.7562308,37.9950769 C33.7046923,41.0843077 38.6285385,27.8096923 38.6285385,27.8096923 C34.4916154,33.1943077 27.1500769,34.6173846 20.1962308,33.0350769 C19.9377692,32.9766154 19.6823846,32.8943077 19.4208462,32.8166154 C19.3600769,32.7996923 19.2916154,32.7796923 19.2308462,32.7581538 C18.9785385,32.682 18.7293077,32.6004615 18.4846923,32.5166154 C18.4500769,32.5050769 18.4131538,32.4927692 18.3785385,32.4781538 C18.1577692,32.402 17.9393077,32.3189231 17.7216154,32.2343077 C17.6608462,32.2081538 17.5977692,32.1866154 17.537,32.1635385 C17.2962308,32.0689231 17.0577692,31.9673846 16.8254615,31.8650769 C16.7739231,31.8466154 16.7300769,31.8250769 16.6816154,31.8050769 C16.4777692,31.7112308 16.2823846,31.6196923 16.0846923,31.5250769 C16.0239231,31.4989231 15.9700769,31.4704615 15.9093077,31.4404615 C15.7539231,31.3673846 15.5993077,31.2850769 15.447,31.2050769 C15.3408462,31.1504615 15.237,31.0996923 15.137,31.0443077 C14.9500769,30.9435385 14.7639231,30.8373846 14.577,30.7343077 C14.5193077,30.6950769 14.4562308,30.662 14.3908462,30.6266154 C14.1493077,30.4827692 13.9054615,30.3350769 13.667,30.1827692 C13.5985385,30.1396923 13.5346923,30.0966154 13.4716154,30.052 C13.297,29.942 13.1246923,29.8250769 12.9546923,29.7104615 C12.9008462,29.6712308 12.8462308,29.6312308 12.7885385,29.5912308 C12.6246923,29.4766154 12.4639231,29.3604615 12.3008462,29.2404615 C12.2316154,29.1866154 12.1600769,29.132 12.0846923,29.0773846 C11.9385385,28.9635385 11.7916154,28.852 11.6462308,28.7343077 C11.5823846,28.6812308 11.517,28.6289231 11.4531538,28.5781538 C11.2639231,28.4258462 11.0862308,28.2735385 10.9046923,28.1150769 C10.8877692,28.0966154 10.8623846,28.0812308 10.8416154,28.0650769 C10.6493077,27.8927692 10.457,27.7166154 10.2677692,27.5412308 C10.2100769,27.4866154 10.1616154,27.4366154 10.1039231,27.3843077 C9.96623077,27.2496923 9.82853846,27.1181538 9.69315385,26.9812308 C9.63623077,26.9243077 9.58392308,26.8704615 9.53007692,26.8166154 C9.35776923,26.642 9.18776923,26.4635385 9.02161538,26.2796923 C9.01315385,26.272 9.00469231,26.2635385 8.99546154,26.2535385 C8.82084615,26.0612308 8.65161538,25.8658462 8.48161538,25.6673846 C8.43546154,25.6150769 8.39315385,25.5604615 8.347,25.5081538 C8.22315385,25.3566154 8.10007692,25.2027692 7.97392308,25.0504615 C7.93315385,24.9912308 7.887,24.9358462 7.84161538,24.8781538 C7.69469231,24.6896923 7.55469231,24.502 7.41392308,24.3081538 C3.55469231,19.0435385 2.16238462,11.7789231 5.24930769,5.81661538" id="Fill-1"></path>
                    <path d="M13.3973077,5.04153846 C10.8557692,8.68769231 10.9965385,13.57 12.975,17.4292308 C13.3019231,18.0746154 13.6757692,18.7023077 14.095,19.2984615 C14.4734615,19.8438462 14.8926923,20.4892308 15.4011538,20.9276923 C15.5788462,21.1284615 15.7711538,21.3238462 15.9696154,21.52 C16.0188462,21.5692308 16.0673077,21.6169231 16.1188462,21.6684615 C16.3088462,21.8507692 16.5011538,22.03 16.6988462,22.2046154 C16.705,22.2123077 16.7157692,22.22 16.7219231,22.2269231 C16.725,22.2284615 16.7273077,22.2307692 16.7273077,22.2307692 C16.9488462,22.4261538 17.1726923,22.6115385 17.405,22.7923077 C17.4596154,22.8307692 17.5088462,22.8746154 17.5626923,22.9130769 C17.7926923,23.0923077 18.0280769,23.2646154 18.2665385,23.4338462 C18.275,23.4369231 18.2811538,23.4423077 18.2926923,23.4469231 C18.3957692,23.5215385 18.505,23.5907692 18.6173077,23.6623077 C18.6657692,23.6938462 18.7173077,23.7307692 18.7657692,23.7615385 C18.9411538,23.8746154 19.1134615,23.9807692 19.2919231,24.0861538 C19.3173077,24.0984615 19.3426923,24.1130769 19.3688462,24.1261538 C19.5188462,24.2161538 19.6765385,24.3053846 19.8342308,24.3853846 C19.8888462,24.4184615 19.9434615,24.4446154 19.9980769,24.4746154 C20.1073077,24.5292308 20.2157692,24.5869231 20.3219231,24.6423077 C20.3365385,24.65 20.3565385,24.6584615 20.3742308,24.6661538 C20.5980769,24.7761538 20.825,24.8784615 21.0488462,24.98 C21.1034615,25.0015385 21.1496154,25.0207692 21.2011538,25.0415385 C21.385,25.1207692 21.5711538,25.1984615 21.755,25.2684615 C21.8380769,25.2961538 21.9157692,25.3292308 21.9934615,25.3561538 C22.1626923,25.4161538 22.335,25.4753846 22.5042308,25.5315385 C22.5873077,25.5584615 22.6619231,25.5815385 22.7373077,25.6061538 C22.9780769,25.6823077 23.2219231,25.78 23.4773077,25.82 C36.5588462,27.9892308 39.585,17.9123077 39.585,17.9123077 C36.8603846,21.8376923 31.5857692,23.7069231 25.9580769,22.2453846 C25.7057692,22.1807692 25.4588462,22.1084615 25.2173077,22.03 C25.1403846,22.01 25.0711538,21.9853846 24.9965385,21.96 C24.8219231,21.9038462 24.6465385,21.8446154 24.4765385,21.7815385 C24.3996154,21.7530769 24.3188462,21.7238462 24.2419231,21.6938462 C24.055,21.6207692 23.8680769,21.5492308 23.6873077,21.4684615 C23.6326923,21.4469231 23.5811538,21.4284615 23.5380769,21.4053846 C23.3057692,21.3053846 23.0757692,21.1969231 22.8519231,21.09 C22.7373077,21.0307692 22.625,20.9730769 22.5103846,20.9130769 C22.4411538,20.8784615 22.375,20.8453846 22.315,20.8138462 C22.1626923,20.7353846 22.0219231,20.6515385 21.8780769,20.5676923 C21.8442308,20.5484615 21.8096154,20.5315385 21.775,20.5107692 C21.5996154,20.4053846 21.4188462,20.2984615 21.2526923,20.1876923 C21.195,20.1553846 21.1465385,20.1176923 21.0919231,20.0838462 C20.9773077,20.01 20.865,19.9369231 20.7473077,19.8584615 C20.5088462,19.6930769 20.2765385,19.5176923 20.0442308,19.3423077 C19.9888462,19.2984615 19.9373077,19.2576923 19.8857692,19.2146154 C17.4165385,17.2707692 15.4642308,14.6123077 14.5396154,11.6023077 C13.5634615,8.47538462 13.7788462,4.96538462 15.4619231,2.11846154" id="Fill-3"></path>
                    <path d="M22.5447692,1.87038462 C21.0463077,4.06961538 20.9024615,6.80192308 21.9355385,9.22730769 C23.0324615,11.8065385 25.2747692,13.8288462 27.8878462,14.7865385 C27.994,14.8280769 28.1001538,14.8626923 28.2093846,14.8996154 C28.2586154,14.9142308 28.304,14.9296154 28.3563077,14.9457692 C28.5078462,14.9926923 28.6601538,15.0503846 28.8178462,15.0803846 C36.0447692,16.4757692 38.0032308,11.3726923 38.5286154,10.6211538 C36.8086154,13.0934615 33.9232308,13.6865385 30.3824615,12.8265385 C30.1047692,12.7588462 29.8001538,12.6588462 29.5301538,12.5611538 C29.1855385,12.4388462 28.844,12.2973077 28.5109231,12.1403846 C27.8878462,11.8380769 27.2847692,11.4726923 26.7278462,11.0511538 C23.5578462,8.64807692 21.5947692,4.06423077 23.6616923,0.330384615" id="Fill-6"></path>
                </g>
            </g>
        </g>
    </g>
</svg>