<?xml version="1.0" encoding="UTF-8" standalone="no"?>
<svg width="104px" height="19px" viewBox="0 0 104 19" version="1.1" xmlns="http://www.w3.org/2000/svg" xmlns:xlink="http://www.w3.org/1999/xlink" xmlns:sketch="http://www.bohemiancoding.com/sketch/ns">
    <!-- Generator: Sketch 3.4.2 (15855) - http://www.bohemiancoding.com/sketch -->
    <title>logo_asknode.svg</title>
    <desc>Created with Sketch.</desc>
    <defs></defs>
    <g id="pc" stroke="none" stroke-width="1" fill="none" fill-rule="evenodd" sketch:type="MSPage">
        <g id="single-service" sketch:type="MSArtboardGroup" transform="translate(-41.000000, -16.000000)" fill="#222222">
            <g id="header" sketch:type="MSLayerGroup" transform="translate(1.000000, 0.000000)">
                <path d="M44.828125,27.8828125 L47.3007812,20.4179688 L47.3476562,20.4179688 L49.8203125,27.8828125 L44.828125,27.8828125 Z M51.8828125,34 L54.6132812,34 L48.4023438,16.9140625 L46.234375,16.9140625 L40.0234375,34 L42.765625,34 L44.078125,30.1796875 L50.5585938,30.1796875 L51.8828125,34 Z M57.3523437,29.8515625 L55.653125,31.796875 C57.4734466,33.3593828 59.6492061,34.140625 62.1804687,34.140625 C66.0945508,34.0937498 68.0945308,32.4375163 68.1804687,29.171875 C68.1804687,27.9609314 67.8015663,26.8984421 67.04375,25.984375 C66.2781212,25.0546829 65.0945392,24.4804698 63.4929687,24.2617188 C62.6804647,24.1601557 62.0398461,24.0703129 61.5710937,23.9921875 C60.7273395,23.8359367 60.1140644,23.5546895 59.73125,23.1484375 C59.3484356,22.749998 59.1570312,22.30469 59.1570312,21.8125 C59.1726563,20.9921834 59.4578097,20.3750021 60.0125,19.9609375 C60.5437526,19.562498 61.2078085,19.3632812 62.0046875,19.3632812 C63.5437577,19.3945314 64.9538998,19.832027 66.2351562,20.6757812 L67.6765625,18.5429688 C66.1062421,17.4101506 64.2586044,16.8203127 62.1335937,16.7734375 C60.3679599,16.7890626 59.0046923,17.2499955 58.04375,18.15625 C57.0515575,19.0703171 56.5554687,20.27343 56.5554687,21.765625 C56.5554687,23.0078187 56.949996,24.0624957 57.7390625,24.9296875 C58.5046913,25.7734417 59.6218676,26.316405 61.090625,26.5585938 C61.9109416,26.6757818 62.6648403,26.7812495 63.3523437,26.875 C64.8523512,27.1328138 65.5945313,27.8984311 65.5789062,29.171875 C65.5476561,30.7265703 64.4226673,31.5195311 62.2039062,31.5507812 C60.3288969,31.5351562 58.7117255,30.9687556 57.3523437,29.8515625 L57.3523437,29.8515625 Z M71.6109375,34 L74.2007812,34 L74.2007812,28.796875 L77.2007812,25.6445312 L81.853125,34 L84.9234375,34 L78.8765625,23.6523438 L84.3492187,16.9140625 L81.2789062,16.9140625 L74.2476562,25.7148438 L74.2007812,25.7148438 L74.2007812,16.9140625 L71.6109375,16.9140625 L71.6109375,34 Z M87.428125,34 L90.0179687,34 L90.0179687,21.859375 L90.0648437,21.859375 L97.7875,34 L100.236719,34 L100.236719,16.9140625 L97.646875,16.9140625 L97.646875,29.0546875 L97.6,29.0546875 L89.865625,16.9140625 L87.428125,16.9140625 L87.428125,34 Z M102.960156,25.4570312 C102.960156,27.410166 103.018749,28.7304653 103.135937,29.4179688 C103.198438,29.7851581 103.276562,30.0898425 103.370312,30.3320312 C103.471875,30.5664074 103.585156,30.8124987 103.710156,31.0703125 C104.124221,31.8593789 104.788277,32.5546845 105.702344,33.15625 C106.600786,33.7812531 107.721868,34.1093748 109.065625,34.140625 C110.425007,34.1093748 111.557808,33.7812531 112.464062,33.15625 C113.362504,32.5546845 114.010935,31.8593789 114.409375,31.0703125 C114.698439,30.6562479 114.897656,30.1054722 115.007031,29.4179688 C115.108594,28.7304653 115.159375,27.410166 115.159375,25.4570312 C115.159375,23.4726463 115.108594,22.1445346 115.007031,21.4726562 C114.897656,20.8007779 114.698439,20.2578146 114.409375,19.84375 C114.010935,19.0546836 113.362504,18.3515656 112.464062,17.734375 C111.557808,17.1093719 110.425007,16.7890626 109.065625,16.7734375 C107.721868,16.7890626 106.600786,17.1093719 105.702344,17.734375 C104.788277,18.3515656 104.124221,19.0546836 103.710156,19.84375 C103.452342,20.2578146 103.260938,20.8007779 103.135937,21.4726562 C103.018749,22.1445346 102.960156,23.4726463 102.960156,25.4570312 L102.960156,25.4570312 Z M105.561719,25.4570312 C105.561719,23.7773354 105.624218,22.6328155 105.749219,22.0234375 C105.858594,21.4453096 106.081248,20.9726581 106.417187,20.6054688 C106.690626,20.2539045 107.049998,19.9609387 107.495312,19.7265625 C107.932815,19.4999989 108.456247,19.3789063 109.065625,19.3632812 C109.682816,19.3789063 110.217966,19.4999989 110.671094,19.7265625 C111.100783,19.9609387 111.44453,20.2539045 111.702344,20.6054688 C112.038283,20.9726581 112.268749,21.4453096 112.39375,22.0234375 C112.510938,22.6328155 112.569531,23.7773354 112.569531,25.4570312 C112.569531,27.1367271 112.510938,28.2734345 112.39375,28.8671875 C112.268749,29.4609405 112.038283,29.9414044 111.702344,30.3085938 C111.44453,30.660158 111.100783,30.9453114 110.671094,31.1640625 C110.217966,31.4218763 109.682816,31.5507812 109.065625,31.5507812 C108.456247,31.5507812 107.932815,31.4218763 107.495312,31.1640625 C107.049998,30.9453114 106.690626,30.660158 106.417187,30.3085938 C106.081248,29.9414044 105.858594,29.4609405 105.749219,28.8671875 C105.624218,28.2734345 105.561719,27.1367271 105.561719,25.4570312 L105.561719,25.4570312 Z M117.882812,34 L123.683594,34 C124.96485,34 126.046871,33.7187528 126.929687,33.15625 C127.820317,32.6328099 128.515622,31.968754 129.015625,31.1640625 C129.203126,30.8593735 129.363281,30.5664077 129.496094,30.2851562 C129.621094,29.9960923 129.714843,29.6679706 129.777344,29.3007812 C129.910157,28.5742151 129.976562,27.2929779 129.976562,25.4570312 C129.976562,23.7304601 129.933594,22.5156285 129.847656,21.8125 C129.738281,21.1093715 129.476565,20.4375032 129.0625,19.796875 C127.906244,17.8906155 126.171887,16.9296876 123.859375,16.9140625 L117.882812,16.9140625 L117.882812,34 Z M120.472656,19.3632812 L123.566406,19.3632812 C124.878913,19.3320311 125.894528,19.812495 126.613281,20.8046875 C126.964845,21.203127 127.187499,21.722653 127.28125,22.3632812 C127.351563,23.0039095 127.386719,24.0663988 127.386719,25.5507812 C127.386719,27.0742264 127.351563,28.1132785 127.28125,28.6679688 C127.203125,29.2304716 127.019533,29.6953107 126.730469,30.0625 C126.074215,31.0546925 125.019538,31.5507812 123.566406,31.5507812 L120.472656,31.5507812 L120.472656,19.3632812 Z M132.7,34 L143.610156,34 L143.610156,31.5507812 L135.289844,31.5507812 L135.289844,26.5351562 L142.391406,26.5351562 L142.391406,24.2382812 L135.289844,24.2382812 L135.289844,19.3632812 L143.610156,19.3632812 L143.610156,16.9140625 L132.7,16.9140625 L132.7,34 Z" id="logo_asknode.svg" sketch:type="MSShapeGroup"></path>
            </g>
        </g>
    </g>
</svg>